<svg width="156" height="52" viewBox="0 0 156 52" fill="none" xmlns="http://www.w3.org/2000/svg">
<path d="M10.9801 50.8625C10.584 50.8625 10.1975 50.8574 9.80451 50.8486C8.99042 50.838 8.17824 50.7671 7.37463 50.6366C6.62529 50.5075 5.89939 50.2674 5.22086 49.9243C4.54856 49.584 3.93536 49.1378 3.40476 48.6027C2.86649 48.074 2.41835 47.4607 2.0781 46.7873C1.73411 46.1094 1.49604 45.3829 1.3722 44.6329C1.23846 43.827 1.1661 43.0122 1.15575 42.1954C1.14751 41.9212 1.13672 41.0084 1.13672 41.0084V10.9776C1.13672 10.9776 1.14821 10.0788 1.15582 9.81474C1.16573 8.99923 1.23767 8.18565 1.371 7.38105C1.49508 6.62903 1.73332 5.90037 2.0775 5.22032C2.4165 4.54733 2.86215 3.93362 3.39718 3.40298C3.93162 2.86731 4.54678 2.41879 5.22023 2.07377C5.89719 1.73172 6.62172 1.49335 7.36954 1.36665C8.1758 1.23479 8.9908 1.1635 9.80771 1.15337L10.9807 1.1375H144.58L145.767 1.15401C146.576 1.16363 147.384 1.23429 148.183 1.36538C148.938 1.49367 149.67 1.7337 150.355 2.07758C151.704 2.77288 152.802 3.87291 153.494 5.22349C153.833 5.89885 154.068 6.62156 154.19 7.36709C154.325 8.17829 154.401 8.99826 154.416 9.82046C154.42 10.1886 154.42 10.5841 154.42 10.9776C154.43 11.4651 154.43 11.9292 154.43 12.397V39.6042C154.43 40.0765 154.43 40.5374 154.42 41.002C154.42 41.4248 154.42 41.812 154.415 42.2106C154.4 43.0181 154.325 43.8235 154.193 44.6202C154.071 45.3755 153.835 46.1078 153.491 46.7912C153.148 47.4573 152.702 48.0652 152.17 48.5926C151.639 49.1305 151.025 49.5793 150.351 49.9218C149.668 50.2676 148.937 50.5086 148.183 50.6366C147.379 50.7678 146.567 50.8387 145.753 50.8486C145.372 50.8574 144.973 50.8625 144.586 50.8625L143.177 50.8651L10.9801 50.8625Z" fill="black"/>
<path d="M32.2014 26.3909C32.2153 25.3058 32.5035 24.2419 33.0392 23.2982C33.5748 22.3545 34.3405 21.5615 35.2649 20.9932C34.6776 20.1545 33.9029 19.4643 33.0022 18.9774C32.1015 18.4904 31.0997 18.2202 30.0764 18.1882C27.8934 17.9591 25.777 19.4945 24.6646 19.4945C23.5307 19.4945 21.8179 18.211 19.9735 18.2489C18.7806 18.2875 17.6179 18.6344 16.5989 19.2558C15.5798 19.8773 14.7392 20.7522 14.1588 21.7951C11.6446 26.1481 13.5199 32.5455 15.9283 36.0641C17.1333 37.787 18.5415 39.7116 20.3842 39.6433C22.1874 39.5686 22.8609 38.4935 25.0375 38.4935C27.1938 38.4935 27.8257 39.6433 29.7058 39.5999C31.6406 39.5685 32.8597 37.8693 34.0224 36.1301C34.8882 34.9024 35.5544 33.5456 35.9964 32.1098C34.8722 31.6344 33.9129 30.8385 33.2381 29.8215C32.5632 28.8046 32.2027 27.6114 32.2014 26.3909V26.3909Z" fill="white"/>
<path d="M28.6502 15.8742C29.7052 14.6077 30.2249 12.9799 30.0991 11.3363C28.4873 11.5056 26.9985 12.276 25.9292 13.4938C25.4064 14.0888 25.0061 14.781 24.7509 15.5308C24.4958 16.2806 24.391 17.0733 24.4424 17.8636C25.2486 17.8719 26.0461 17.6972 26.775 17.3526C27.5039 17.008 28.145 16.5025 28.6502 15.8742Z" fill="white"/>
<path d="M54.9953 35.2815H48.8419L47.3642 39.6449H44.7578L50.5862 23.5015H53.2941L59.1226 39.6449H56.4718L54.9953 35.2815ZM49.4792 33.2681H54.3568L51.9523 26.1866H51.885L49.4792 33.2681Z" fill="white"/>
<path d="M71.7119 33.7606C71.7119 37.4182 69.7542 39.7681 66.8 39.7681C66.0517 39.8072 65.3074 39.6348 64.6525 39.2706C63.9976 38.9065 63.4584 38.3652 63.0968 37.7089H63.0409V43.5386H60.625V27.8751H62.9635V29.8327H63.0079C63.3862 29.1795 63.9344 28.6411 64.5944 28.2747C65.2543 27.9083 66.0012 27.7276 66.7556 27.7519C69.7428 27.752 71.7119 30.1133 71.7119 33.7606ZM69.2286 33.7606C69.2286 31.3777 67.9972 29.8111 66.1183 29.8111C64.2724 29.8111 63.0308 31.4107 63.0308 33.7606C63.0308 36.1321 64.2724 37.7203 66.1183 37.7203C67.9972 37.7203 69.2286 36.1651 69.2286 33.7606Z" fill="white"/>
<path d="M84.665 33.7606C84.665 37.4182 82.7074 39.7681 79.7532 39.7681C79.0048 39.8072 78.2606 39.6348 77.6056 39.2706C76.9507 38.9065 76.4116 38.3652 76.0499 37.7089H75.994V43.5386H73.5781V27.8751H75.9166V29.8327H75.961C76.3393 29.1795 76.8875 28.6411 77.5474 28.2747C78.2074 27.9083 78.9543 27.7276 79.7087 27.752C82.6959 27.752 84.665 30.1133 84.665 33.7606ZM82.1818 33.7606C82.1818 31.3777 80.9503 29.8111 79.0714 29.8111C77.2255 29.8111 75.9839 31.4107 75.9839 33.7606C75.9839 36.1321 77.2255 37.7203 79.0714 37.7203C80.9503 37.7203 82.1818 36.1651 82.1818 33.7606H82.1818Z" fill="white"/>
<path d="M93.227 35.147C93.406 36.7479 94.9612 37.799 97.0864 37.799C99.1227 37.799 100.588 36.7478 100.588 35.3043C100.588 34.0513 99.7041 33.301 97.612 32.7869L95.5198 32.2828C92.5554 31.5668 91.1792 30.1805 91.1792 27.9309C91.1792 25.1455 93.6066 23.2324 97.0534 23.2324C100.465 23.2324 102.803 25.1455 102.882 27.9309H100.443C100.297 26.3199 98.9652 25.3474 97.0191 25.3474C95.0729 25.3474 93.7411 26.3313 93.7411 27.7633C93.7411 28.9046 94.5917 29.5762 96.6725 30.0903L98.4511 30.527C101.763 31.3103 103.139 32.6408 103.139 35.0021C103.139 38.0224 100.734 39.914 96.9073 39.914C93.3272 39.914 90.9101 38.0668 90.7539 35.1469L93.227 35.147Z" fill="white"/>
<path d="M108.354 25.0897V27.8751H110.592V29.7883H108.354V36.2768C108.354 37.2849 108.802 37.7546 109.786 37.7546C110.051 37.75 110.317 37.7313 110.58 37.6987V39.6004C110.138 39.6831 109.688 39.7205 109.238 39.7122C106.855 39.7122 105.926 38.8171 105.926 36.5345V29.7883H104.215V27.8751H105.926V25.0897H108.354Z" fill="white"/>
<path d="M111.887 33.7606C111.887 30.0574 114.068 27.7304 117.469 27.7304C120.881 27.7304 123.052 30.0574 123.052 33.7606C123.052 37.474 120.893 39.7909 117.469 39.7909C114.046 39.7909 111.887 37.474 111.887 33.7606ZM120.591 33.7606C120.591 31.2203 119.426 29.721 117.469 29.721C115.511 29.721 114.348 31.2317 114.348 33.7606C114.348 36.3111 115.511 37.799 117.469 37.799C119.426 37.799 120.591 36.3111 120.591 33.7606H120.591Z" fill="white"/>
<path d="M125.043 27.8751H127.347V29.8784H127.403C127.559 29.2527 127.926 28.6998 128.441 28.3125C128.957 27.9253 129.59 27.7273 130.234 27.7519C130.513 27.751 130.79 27.7812 131.062 27.8421V30.1018C130.71 29.9944 130.344 29.9451 129.976 29.9558C129.625 29.9416 129.276 30.0035 128.951 30.1372C128.626 30.271 128.334 30.4734 128.095 30.7307C127.856 30.988 127.675 31.2939 127.565 31.6276C127.455 31.9613 127.419 32.3147 127.459 32.6637V39.6449H125.043L125.043 27.8751Z" fill="white"/>
<path d="M142.203 36.188C141.878 38.3246 139.797 39.7909 137.135 39.7909C133.711 39.7909 131.586 37.4969 131.586 33.8165C131.586 30.1247 133.723 27.7304 137.033 27.7304C140.29 27.7304 142.338 29.9673 142.338 33.5359V34.3637H134.025V34.5097C133.986 34.9428 134.041 35.3792 134.184 35.7898C134.327 36.2004 134.556 36.5758 134.855 36.8911C135.155 37.2064 135.518 37.4544 135.921 37.6186C136.323 37.7828 136.756 37.8594 137.191 37.8434C137.762 37.8969 138.335 37.7647 138.824 37.4664C139.314 37.1682 139.695 36.7198 139.909 36.188L142.203 36.188ZM134.036 32.6752H139.92C139.942 32.2857 139.883 31.896 139.747 31.5304C139.611 31.1648 139.401 30.8313 139.13 30.5508C138.859 30.2703 138.532 30.0489 138.172 29.9004C137.811 29.7519 137.423 29.6796 137.033 29.688C136.64 29.6856 136.25 29.7612 135.886 29.9104C135.522 30.0596 135.191 30.2793 134.912 30.5571C134.634 30.8348 134.413 31.1649 134.262 31.5285C134.112 31.892 134.035 32.2818 134.036 32.6752V32.6752Z" fill="white"/>
<path d="M49.1729 11.3503C49.6794 11.314 50.1877 11.3905 50.661 11.5743C51.1344 11.7582 51.561 12.0448 51.9102 12.4135C52.2593 12.7822 52.5223 13.2239 52.6801 13.7065C52.838 14.1892 52.8867 14.7008 52.8228 15.2046C52.8228 17.6827 51.4835 19.1072 49.1729 19.1072H46.3711V11.3503H49.1729ZM47.5759 18.0102H49.0384C49.4003 18.0318 49.7625 17.9725 50.0986 17.8365C50.4347 17.7005 50.7362 17.4913 50.9813 17.224C51.2263 16.9568 51.4087 16.6383 51.5151 16.2917C51.6215 15.9451 51.6493 15.5791 51.5965 15.2204C51.6455 14.8631 51.6149 14.4994 51.5068 14.1554C51.3988 13.8113 51.216 13.4954 50.9715 13.2303C50.727 12.9652 50.4269 12.7574 50.0927 12.6219C49.7585 12.4864 49.3984 12.4265 49.0384 12.4465H47.5759V18.0102Z" fill="white"/>
<path d="M54.1849 16.1776C54.1481 15.7929 54.1921 15.4048 54.3141 15.0381C54.4361 14.6714 54.6334 14.3343 54.8933 14.0483C55.1533 13.7623 55.4701 13.5338 55.8235 13.3775C56.1769 13.2211 56.5591 13.1404 56.9455 13.1404C57.332 13.1404 57.7142 13.2211 58.0676 13.3775C58.421 13.5338 58.7378 13.7623 58.9977 14.0483C59.2577 14.3343 59.4549 14.6714 59.5769 15.0381C59.6989 15.4048 59.7429 15.7929 59.7061 16.1776C59.7436 16.5627 59.7001 16.9514 59.5785 17.3187C59.4568 17.686 59.2596 18.0237 58.9996 18.3103C58.7397 18.5968 58.4226 18.8258 58.0688 18.9825C57.7151 19.1392 57.3324 19.2201 56.9455 19.2201C56.5586 19.2201 56.176 19.1392 55.8222 18.9825C55.4685 18.8258 55.1514 18.5968 54.8914 18.3103C54.6314 18.0237 54.4343 17.686 54.3126 17.3187C54.1909 16.9514 54.1474 16.5627 54.1849 16.1776V16.1776ZM58.5178 16.1776C58.5178 14.9088 57.9478 14.1667 56.9474 14.1667C55.9432 14.1667 55.3783 14.9088 55.3783 16.1777C55.3783 17.4567 55.9433 18.193 56.9474 18.193C57.9478 18.193 58.5178 17.4516 58.5178 16.1776H58.5178Z" fill="white"/>
<path d="M67.0441 19.1071H65.8457L64.6358 14.7957H64.5444L63.3397 19.1071H62.1526L60.5391 13.2533H61.7108L62.7595 17.7201H62.8458L64.0493 13.2533H65.1576L66.3611 17.7201H66.4525L67.4961 13.2533H68.6514L67.0441 19.1071Z" fill="white"/>
<path d="M70.0078 13.2533H71.1199V14.1832H71.2063C71.3527 13.8492 71.5997 13.5692 71.9128 13.3823C72.226 13.1953 72.5896 13.1107 72.9531 13.1403C73.238 13.1189 73.524 13.1618 73.7899 13.2659C74.0559 13.37 74.2951 13.5327 74.4896 13.7418C74.6842 13.9509 74.8293 14.2011 74.914 14.4738C74.9988 14.7466 75.0211 15.035 74.9793 15.3175V19.107H73.824V15.6076C73.824 14.6669 73.4152 14.1991 72.5608 14.1991C72.3675 14.1901 72.1744 14.223 71.9949 14.2956C71.8155 14.3681 71.6538 14.4787 71.521 14.6196C71.3883 14.7605 71.2876 14.9284 71.2258 15.1119C71.164 15.2953 71.1426 15.49 71.1631 15.6825V19.1071H70.0078L70.0078 13.2533Z" fill="white"/>
<path d="M76.8203 10.9681H77.9756V19.1071H76.8203V10.9681Z" fill="white"/>
<path d="M79.5833 16.1776C79.5466 15.7929 79.5906 15.4048 79.7126 15.0381C79.8346 14.6714 80.032 14.3342 80.2919 14.0482C80.5519 13.7622 80.8687 13.5337 81.2221 13.3774C81.5756 13.221 81.9578 13.1402 82.3443 13.1402C82.7307 13.1402 83.1129 13.221 83.4664 13.3774C83.8198 13.5337 84.1366 13.7622 84.3966 14.0482C84.6565 14.3342 84.8539 14.6714 84.9759 15.0381C85.0979 15.4048 85.1419 15.7929 85.1052 16.1776C85.1426 16.5627 85.0991 16.9514 84.9774 17.3187C84.8557 17.686 84.6585 18.0237 84.3985 18.3103C84.1384 18.5968 83.8214 18.8258 83.4676 18.9825C83.1138 19.1391 82.7312 19.2201 82.3443 19.2201C81.9573 19.2201 81.5747 19.1391 81.2209 18.9825C80.8671 18.8258 80.5501 18.5968 80.29 18.3103C80.03 18.0237 79.8328 17.686 79.7111 17.3187C79.5894 16.9514 79.5459 16.5627 79.5833 16.1776V16.1776ZM83.9162 16.1776C83.9162 14.9088 83.3462 14.1667 82.3458 14.1667C81.3416 14.1667 80.7767 14.9088 80.7767 16.1777C80.7767 17.4567 81.3417 18.193 82.3458 18.193C83.3462 18.193 83.9162 17.4516 83.9162 16.1776H83.9162Z" fill="white"/>
<path d="M86.3203 17.4516C86.3203 16.3979 87.1049 15.7904 88.4975 15.7041L90.0832 15.6127V15.1074C90.0832 14.4892 89.6744 14.14 88.8848 14.14C88.2398 14.14 87.793 14.3768 87.6647 14.7907H86.5463C86.6644 13.7852 87.6102 13.1403 88.9381 13.1403C90.4057 13.1403 91.2334 13.8709 91.2334 15.1074V19.1071H90.1213V18.2844H90.0299C89.8444 18.5795 89.5838 18.8201 89.2749 18.9816C88.966 19.143 88.6198 19.2196 88.2716 19.2035C88.0258 19.2291 87.7775 19.2029 87.5425 19.1266C87.3075 19.0503 87.0911 18.9256 86.9073 18.7605C86.7234 18.5954 86.5762 18.3937 86.4751 18.1682C86.374 17.9428 86.3213 17.6987 86.3203 17.4516V17.4516ZM90.0832 16.9514V16.462L88.6537 16.5534C87.8476 16.6074 87.4819 16.8816 87.4819 17.3977C87.4819 17.9245 87.939 18.2311 88.5674 18.2311C88.7516 18.2497 88.9376 18.2311 89.1144 18.1764C89.2912 18.1217 89.4552 18.032 89.5966 17.9126C89.738 17.7932 89.854 17.6466 89.9376 17.4815C90.0212 17.3163 90.0707 17.1361 90.0832 16.9514V16.9514Z" fill="white"/>
<path d="M92.75 16.1776C92.75 14.3279 93.7009 13.1562 95.1799 13.1562C95.5457 13.1393 95.9088 13.2269 96.2267 13.4088C96.5446 13.5907 96.8041 13.8592 96.975 14.1832H97.0613V10.9681H98.2166V19.1071H97.1096V18.1822H97.0182C96.8341 18.5039 96.5655 18.7692 96.2415 18.9492C95.9174 19.1292 95.5503 19.2172 95.1799 19.2035C93.6907 19.2036 92.75 18.0318 92.75 16.1776ZM93.9434 16.1776C93.9434 17.4192 94.5287 18.1664 95.5075 18.1664C96.4812 18.1664 97.083 17.4085 97.083 16.1827C97.083 14.9627 96.4749 14.194 95.5075 14.194C94.535 14.194 93.9434 14.9462 93.9434 16.1776H93.9434Z" fill="white"/>
<path d="M102.997 16.1776C102.961 15.7929 103.005 15.4048 103.127 15.0381C103.249 14.6714 103.446 14.3343 103.706 14.0483C103.966 13.7623 104.283 13.5338 104.636 13.3775C104.989 13.2211 105.372 13.1404 105.758 13.1404C106.144 13.1404 106.527 13.2211 106.88 13.3775C107.233 13.5338 107.55 13.7623 107.81 14.0483C108.07 14.3343 108.267 14.6714 108.389 15.0381C108.511 15.4048 108.555 15.7929 108.519 16.1776C108.556 16.5627 108.513 16.9514 108.391 17.3187C108.269 17.686 108.072 18.0237 107.812 18.3103C107.552 18.5968 107.235 18.8258 106.881 18.9825C106.528 19.1392 106.145 19.2201 105.758 19.2201C105.371 19.2201 104.988 19.1392 104.635 18.9825C104.281 18.8258 103.964 18.5968 103.704 18.3103C103.444 18.0237 103.247 17.686 103.125 17.3187C103.003 16.9514 102.96 16.5627 102.997 16.1776V16.1776ZM107.33 16.1776C107.33 14.9088 106.76 14.1667 105.76 14.1667C104.756 14.1667 104.191 14.9088 104.191 16.1777C104.191 17.4567 104.756 18.193 105.76 18.193C106.76 18.193 107.33 17.4516 107.33 16.1776Z" fill="white"/>
<path d="M110.07 13.2533H111.182V14.1832H111.269C111.415 13.8492 111.662 13.5692 111.975 13.3823C112.288 13.1953 112.652 13.1107 113.016 13.1403C113.3 13.1189 113.586 13.1618 113.852 13.2659C114.118 13.37 114.358 13.5327 114.552 13.7418C114.747 13.9509 114.892 14.2011 114.977 14.4738C115.061 14.7466 115.084 15.035 115.042 15.3175V19.107H113.887V15.6076C113.887 14.6669 113.478 14.1991 112.623 14.1991C112.43 14.1901 112.237 14.223 112.057 14.2956C111.878 14.3681 111.716 14.4787 111.584 14.6196C111.451 14.7605 111.35 14.9284 111.288 15.1119C111.226 15.2953 111.205 15.49 111.226 15.6825V19.1071H110.07V13.2533Z" fill="white"/>
<path d="M121.57 11.7958V13.2799H122.838V14.253H121.57V17.2631C121.57 17.8763 121.823 18.1448 122.398 18.1448C122.545 18.1443 122.692 18.1354 122.838 18.1181V19.0804C122.631 19.1175 122.421 19.1373 122.21 19.1394C120.925 19.1394 120.414 18.6875 120.414 17.5589V14.253H119.484V13.2799H120.414V11.7958H121.57Z" fill="white"/>
<path d="M124.414 10.9681H125.559V14.194H125.651C125.804 13.8569 126.058 13.5753 126.377 13.3876C126.697 13.2 127.066 13.1154 127.435 13.1454C127.719 13.1299 128.002 13.1772 128.265 13.2839C128.528 13.3906 128.764 13.5539 128.957 13.7624C129.149 13.9708 129.293 14.2192 129.379 14.4897C129.465 14.7603 129.489 15.0464 129.451 15.3277V19.1071H128.295V15.6127C128.295 14.6777 127.86 14.2041 127.043 14.2041C126.845 14.1878 126.645 14.2151 126.458 14.2841C126.271 14.3531 126.102 14.4621 125.961 14.6034C125.821 14.7448 125.713 14.9151 125.645 15.1025C125.578 15.2899 125.552 15.4898 125.569 15.6882V19.107H124.414L124.414 10.9681Z" fill="white"/>
<path d="M136.187 17.5265C136.031 18.0615 135.69 18.5243 135.227 18.8339C134.763 19.1435 134.205 19.2802 133.651 19.2201C133.265 19.2302 132.882 19.1564 132.528 19.0036C132.174 18.8508 131.857 18.6228 131.599 18.3353C131.342 18.0478 131.151 17.7078 131.038 17.3388C130.925 16.9698 130.894 16.5808 130.947 16.1986C130.895 15.8152 130.927 15.4253 131.04 15.0552C131.152 14.6852 131.343 14.3436 131.599 14.0536C131.854 13.7636 132.17 13.532 132.523 13.3744C132.876 13.2168 133.259 13.137 133.646 13.1403C135.275 13.1403 136.257 14.2531 136.257 16.0913V16.4944H132.124V16.5591C132.106 16.774 132.133 16.9902 132.203 17.194C132.273 17.3977 132.385 17.5846 132.532 17.7425C132.679 17.9003 132.857 18.0258 133.055 18.1108C133.253 18.1959 133.467 18.2385 133.683 18.2361C133.959 18.2693 134.239 18.2196 134.487 18.0932C134.735 17.9668 134.94 17.7696 135.075 17.5265L136.187 17.5265ZM132.124 15.64H135.08C135.095 15.4435 135.068 15.2462 135.002 15.0607C134.936 14.8751 134.831 14.7055 134.696 14.5627C134.56 14.4199 134.396 14.307 134.214 14.2314C134.032 14.1558 133.836 14.119 133.639 14.1235C133.44 14.121 133.241 14.1585 133.056 14.2339C132.871 14.3092 132.703 14.4208 132.562 14.5621C132.421 14.7035 132.309 14.8716 132.234 15.0568C132.159 15.2419 132.121 15.4402 132.124 15.64H132.124Z" fill="white"/>
</svg>
