<svg width="783" height="376" viewBox="0 0 783 376" fill="none" xmlns="http://www.w3.org/2000/svg">
<path d="M51.2501 65.5995C55.5801 66.9196 58.9854 69.2216 62.5693 71.9382C64.4887 73.2838 66.0256 74.3232 68.3914 74.5655C71.8414 73.7174 73.2698 71.6832 75.285 68.8645C78.2949 69.3492 78.2949 69.3492 79.87 70.7776C82.8863 75.7772 83.4602 82.9385 82.2996 88.6331C80.3036 93.926 77.096 97.9116 72.7342 101.387C71.8541 102.758 71.8541 102.758 71.4588 103.938C72.2686 104.059 72.2686 104.059 73.0913 104.18C75.3679 104.595 77.5296 105.194 79.7488 105.851C80.597 106.074 81.4451 106.285 82.2996 106.489C82.3506 105.915 82.4016 105.334 82.459 104.741C83.0075 102.356 83.6069 101.617 85.4881 100.112C87.4586 98.8809 88.1282 98.8363 90.5897 98.8363C90.8065 98.2496 90.8065 98.2496 91.0297 97.6438C92.1265 95.8583 93.0639 95.584 95.0536 95.0101C95.8953 95.0101 96.7371 95.0101 97.6044 95.0101C97.4003 94.3979 97.4003 94.3979 97.1899 93.773C96.0101 89.5132 96.0101 89.5132 96.8009 87.3322C99.256 84.0417 102.693 83.0342 106.462 81.746C108.254 81.0573 109.357 80.4132 110.798 79.1888C113.732 77.2502 115.862 77.2056 119.286 77.7923C123.386 78.9338 126.581 80.19 129.126 83.6974C130.516 85.5148 131.109 86.0186 133.379 86.5287C134.801 86.6308 136.23 86.6882 137.658 86.7009C139.699 86.7264 141.529 86.905 143.519 87.3577C144.635 88.6778 144.635 88.6778 145.432 89.9085C145.853 89.9085 146.273 89.9085 146.707 89.9085C147.128 89.2772 147.549 88.6523 147.982 87.9954C149.5 88.3653 150.954 88.7798 152.446 89.2708C152.497 88.6714 152.548 88.0656 152.606 87.4407C153.084 85.4447 153.084 85.4447 154.398 84.571C154.806 84.4371 155.214 84.3096 155.635 84.1693C156.84 85.6934 157.561 86.7711 158.186 88.6331C158.536 88.4418 158.893 88.2442 159.263 88.0401C160.845 87.3131 162.19 86.905 163.925 86.7201C165.685 88.4865 165.57 90.0425 165.838 92.4593C166.348 92.3318 166.858 92.2043 167.381 92.064C175.295 90.1254 182.201 88.6714 189.669 92.6251C193.412 94.94 196.996 98.0328 198.998 102.025C199.075 103.064 199.107 104.097 199.119 105.137C199.126 105.685 199.132 106.24 199.145 106.808C198.992 108.485 198.571 109.511 197.723 110.953C198.105 111.38 198.488 111.801 198.883 112.234C200.516 114.479 201.268 116.539 202.066 119.166C202.282 119.817 202.282 119.817 202.506 120.486C203.596 123.987 203.647 126.92 202.142 130.364C201.951 130.696 201.753 131.021 201.549 131.359C201.932 131.614 202.308 131.863 202.703 132.118C205.012 134.031 205.994 136.142 206.651 139.011C207.148 138.38 207.645 137.749 208.162 137.098C211.79 133.948 216.771 134.847 221.267 135.115C222.338 135.172 223.416 135.198 224.487 135.211C231.31 135.466 237.005 139.464 241.724 144.113C242.011 144.451 242.298 144.782 242.591 145.127C243.541 146.224 243.541 146.224 245.55 147.301C247.686 147.34 249.721 147.135 251.838 146.874C253.534 146.695 254.778 146.702 256.429 147.027C258.527 147.34 259.069 147.014 260.855 146.026C262.29 146.268 262.29 146.268 263.406 146.664C263.406 148.347 263.406 150.031 263.406 151.765C264.196 151.606 264.196 151.606 265.013 151.446C266.052 151.249 266.052 151.249 267.111 151.051C267.799 150.917 268.488 150.783 269.196 150.649C271.058 150.49 271.058 150.49 272.971 151.765C272.569 153.64 271.932 155.17 271.058 156.867C271.447 156.854 271.842 156.841 272.244 156.822C272.761 156.816 273.277 156.803 273.806 156.79C274.317 156.777 274.827 156.758 275.356 156.746C276.797 156.867 276.797 156.867 278.71 158.142C278.832 159.819 278.832 159.819 278.71 161.331C277.658 161.752 276.606 162.172 275.522 162.606C275.311 164.085 275.101 165.559 274.884 167.07C286.796 175.577 286.796 175.577 300.59 177.554C301.157 177.464 301.719 177.369 302.305 177.273C302.943 177.911 302.943 177.911 303.102 179.428C302.943 181.099 302.943 181.099 302.222 182.26C300.532 183.331 299.161 183.146 297.204 183.012C296.783 183.854 296.362 184.696 295.928 185.563C294.876 185.563 293.824 185.563 292.74 185.563C292.74 185.78 292.74 185.984 292.74 186.201C292.95 186.418 293.161 186.622 293.377 186.839C293.499 188.395 293.499 188.395 293.377 190.027C292.957 190.448 292.536 190.869 292.102 191.302C290.508 191.143 289.717 190.824 288.537 189.727C286.293 188.312 284.061 188.286 281.459 187.999C276.855 187.387 274.068 186.43 270.879 182.853C269.661 181.622 268.915 181.348 267.232 181.099C267.704 185.353 268.801 187.463 271.976 190.301C273.271 191.609 273.609 192.667 273.609 194.491C272.971 195.129 272.971 195.129 271.766 195.218C269.107 195.205 266.632 195.16 264.043 194.491C264.043 194.912 264.043 195.333 264.043 195.766C264.611 195.862 264.611 195.862 265.185 195.958C268.424 196.57 270.529 197.233 272.971 199.592C272.812 200.791 272.812 200.791 272.333 202.143C269.19 204.158 265.701 203.954 262.13 203.419C256.531 201.34 251.551 198.107 246.826 194.491C246.443 194.217 246.067 193.943 245.671 193.662C243.12 191.717 241.877 189.644 240.449 186.839C238.127 189.032 236.393 191.175 234.709 193.853C235.168 193.815 235.628 193.777 236.106 193.738C238.268 193.879 239.294 194.58 241.086 195.766C241.928 196.206 242.776 196.634 243.637 197.042C243.516 198.559 243.516 198.559 242.999 200.23C240.551 201.742 238.159 201.716 235.347 201.506C234.716 201.091 234.084 200.67 233.434 200.23C231.731 200.128 231.731 200.128 229.844 200.23C226.343 200.3 223.416 199.86 220.042 198.955C220.253 199.797 220.463 200.638 220.68 201.506C221.426 201.455 222.179 201.404 222.95 201.353C225.067 201.333 226.279 201.639 228.052 202.781C230.526 204.229 231.891 204.337 234.709 204.056C235.13 203.846 235.551 203.642 235.985 203.419C242.075 202.845 246.615 203.572 251.927 206.607C251.927 207.449 251.927 208.291 251.927 209.158C249.019 209.254 246.118 209.324 243.216 209.368C242.228 209.388 241.246 209.419 240.257 209.451C231.011 209.751 231.011 209.751 227.841 207.334C227.146 206.677 226.457 206.014 225.782 205.332C223.932 204.235 222.121 203.342 220.042 202.781C218.289 203.189 218.289 203.189 216.854 204.056C215.055 204.139 215.055 204.139 213.665 204.056C213.876 203.011 214.086 201.952 214.303 200.868C213.844 200.715 213.378 200.555 212.906 200.396C210.56 199.35 208.462 198.113 207.288 195.766C203.194 196.347 201.288 197.545 198.52 200.575C197.353 202.87 197.595 204.694 197.723 207.245C198.086 207.296 198.456 207.347 198.832 207.392C200.51 207.615 202.187 207.851 203.857 208.087C204.438 208.163 205.012 208.233 205.605 208.31C210.63 209.03 214.584 210.548 218.129 214.26C218.601 216.868 218.371 218.226 217.211 220.598C212.753 225.923 208.315 229.201 201.396 230.47C195.395 230.897 189.299 227.785 184.701 224.163C182.635 222.173 181.583 220.522 181.06 217.69C180.664 215.592 180.664 215.592 179.867 213.622C179.644 213.966 179.415 214.304 179.185 214.649C176.768 218.111 174.587 220.585 170.302 221.568C169.243 221.727 168.178 221.829 167.113 221.912C167.03 222.55 166.954 223.181 166.871 223.825C165.857 230.565 163.989 235.457 158.383 239.691C155.08 241.827 151.847 242.943 147.982 243.594C147.275 243.715 147.275 243.715 146.554 243.842C138.691 244.499 130.739 238.148 125.025 233.352C122.902 231.554 122.143 230.438 121.837 227.651C121.206 227.441 120.574 227.237 119.924 227.013C118.457 224.935 118.31 223.136 118.648 220.636C120.121 217.378 122.487 214.738 124.783 212.028C128.061 208.099 129.483 204.72 130.127 199.592C129.706 199.592 129.285 199.592 128.852 199.592C128.667 200.058 128.482 200.517 128.29 200.989C127.94 201.875 127.94 201.875 127.576 202.781C127.34 203.635 127.34 203.635 127.098 204.496C126.83 204.987 126.569 205.472 126.301 205.969C125.708 206.122 125.121 206.269 124.515 206.416C121.365 207.698 120.472 210.166 118.923 213.067C118.227 214.266 118.227 214.266 116.735 216.173C114.803 216.287 114.803 216.287 112.909 216.173C111.564 217.333 111.564 217.333 110.358 218.723C106.596 220.923 103.108 222.11 98.7777 222.352C97.4449 222.46 97.4449 222.46 96.3672 223.87C94.7539 225.387 94.1161 225.324 91.9416 225.381C89.0975 225.253 87.3055 224.699 84.8504 223.187C84.302 222.919 83.7536 222.645 83.1924 222.371C78.7859 220.152 74.9916 217.85 73.3719 212.984C71.9944 204.331 71.9944 204.331 73.442 201.302C74.609 200.109 75.8079 199.242 77.198 198.317C77.7337 197.883 78.2758 197.443 78.8306 196.997C84.9397 192.163 90.2836 191.13 97.9104 190.862C100.123 190.671 101.909 190.18 103.981 189.389C102.106 188.05 102.107 188.05 99.9575 187.279C96.7945 185.946 94.4605 184.141 92.6622 181.182C91.8651 179.186 91.8651 179.186 91.4251 176.954C90.239 173.804 88.2047 172.733 85.4881 170.896C84.1872 169.863 82.9246 168.785 81.6619 167.708C81.8724 166.662 82.0828 165.603 82.2996 164.519C82.9309 164.309 83.5623 164.105 84.2127 163.881C84.2127 163.046 84.2127 162.204 84.2127 161.331C83.3837 161.363 82.5483 161.394 81.6938 161.426C80.597 161.445 79.4938 161.471 78.3905 161.496C77.8485 161.516 77.3001 161.535 76.7389 161.56C73.0785 161.611 71.2483 161.076 68.2703 158.78C65.407 158.525 62.7925 158.869 59.9802 159.418C59.7698 158.582 59.5593 157.74 59.3425 156.867C58.7495 156.924 58.1564 156.975 57.5506 157.033C50.351 156.943 44.6882 152.543 39.5739 147.939C37.2527 145.363 35.2121 142.978 34.9506 139.451C35.1228 136.888 35.5373 135.963 37.0231 133.91C38.4898 132.806 38.4898 132.806 40.1287 131.882C40.9386 131.41 40.9386 131.41 41.7612 130.938C44.5288 129.503 46.6268 128.63 49.7771 128.808C49.4582 128.311 49.1457 127.813 48.8205 127.297C47.864 125.62 47.864 125.62 47.864 124.344C42.3734 126.225 42.3734 126.225 37.935 129.809C32.3743 135.887 22.3051 135.549 14.6208 135.925C13.1477 135.944 11.7065 135.912 10.2398 135.823C9.48735 135.797 9.48735 135.797 8.71574 135.772C5.41246 135.542 3.24429 134.892 0.674373 132.634C-0.0462252 131.404 -0.0462252 131.404 0.0366754 130.083C1.65005 127.488 3.95851 125.626 6.2606 123.655C7.81658 122.323 9.34705 120.964 10.8775 119.606C11.3622 119.172 11.8468 118.739 12.3506 118.292C12.7077 117.974 13.0585 117.661 13.4283 117.33C13.2051 115.531 12.95 114.913 11.5152 113.739C11.0051 113.427 10.4885 113.114 9.95924 112.789C8.38413 111.813 7.08961 110.997 5.77595 109.677C5.02985 105.545 5.85247 102.305 8.04615 98.7853C9.23227 97.2038 10.4694 96.0559 12.1529 95.0101C12.5738 95.0101 12.9947 95.0101 13.4283 95.0101C13.5559 94.6594 13.6898 94.3023 13.8237 93.9388C15.5518 91.0373 17.6881 89.5323 20.8447 88.5694C21.6674 88.4291 22.4964 88.2952 23.3509 88.1613C24.0141 88.0465 24.0141 88.0465 24.6901 87.9317C28.2229 87.3578 31.743 87.1154 35.3205 87.0453C37.546 86.6244 38.2284 85.9867 39.5739 84.1693C40.3136 82.1733 40.3136 82.1733 40.8047 79.9477C44.5798 65.8482 44.5798 65.8482 51.2501 65.5995Z" fill="#FEDCEB"/>
<path d="M526.772 174.725C527.155 175.497 527.544 176.269 527.927 177.034C528.163 177.506 528.398 177.971 528.641 178.45C529.196 179.572 529.725 180.713 530.241 181.861C532.614 186.127 535.815 187.652 540.164 189.393C540.585 189.603 541.006 189.813 541.439 190.03C542.791 190.164 544.15 190.266 545.508 190.349C549.474 190.598 549.474 190.598 551.215 191.063C551.566 191.146 551.917 191.223 552.28 191.306C552.567 191.006 552.861 190.7 553.16 190.387C554.193 189.393 554.193 189.393 556.228 189.271C556.821 189.31 557.407 189.354 558.02 189.393C558.262 190.451 558.472 191.51 558.657 192.581C558.02 193.219 558.02 193.219 556.387 193.257C555.87 193.244 555.36 193.231 554.831 193.219C554.831 193.64 554.831 194.06 554.831 194.494C557.337 194.131 557.337 194.131 559.295 192.581C560.577 192.581 561.858 192.587 563.14 192.658C564.607 192.67 564.607 192.67 566.31 191.306C569.103 191.548 572.106 192.568 574.6 193.856C575.021 194.488 575.441 195.119 575.875 195.769C576.372 195.967 576.876 196.165 577.393 196.369C579.064 197.045 579.064 197.045 580.128 198.32C582.156 200.061 584.069 200.131 586.639 200.31C587.15 200.361 587.66 200.406 588.183 200.45C591.677 200.75 595.172 200.967 598.673 201.184C599.31 201.228 599.31 201.228 599.967 201.266C602.11 201.4 604.246 201.528 606.389 201.649C607.186 201.694 607.977 201.738 608.793 201.789C609.852 201.847 609.852 201.847 610.936 201.904C613.588 202.236 615.419 202.791 617.325 204.697C617.325 205.539 617.325 206.381 617.325 207.248C611.911 209.952 603.277 208.447 597.423 207.822C596.096 207.682 594.77 207.561 593.444 207.433C586.984 206.789 586.984 206.789 584.803 205.335C582.762 205.545 581.008 205.96 579.064 206.61C580.116 206.61 581.168 206.61 582.252 206.61C578.088 211.157 572.738 211.89 566.826 212.19C565.168 212.26 563.51 212.311 561.846 212.35C561.846 211.929 561.846 211.508 561.846 211.074C558.498 210.328 555.297 210.322 551.885 210.315C550.967 210.303 550.967 210.303 550.036 210.296C549.162 210.29 549.162 210.29 548.269 210.29C547.74 210.29 547.211 210.283 546.662 210.283C545.081 210.347 545.081 210.347 543.352 211.712C541.318 211.788 541.318 211.788 539.526 211.712C539.526 212.343 539.526 212.975 539.526 213.625C538.474 213.835 537.422 214.046 536.338 214.263C536.338 213.842 536.338 213.421 536.338 212.987C535.649 213.325 535.649 213.325 534.941 213.663C532.952 214.326 531.95 214.193 529.961 213.625C529.961 213.204 529.961 212.783 529.961 212.35C529.565 212.783 529.17 213.217 528.762 213.663C526.179 215.264 524.846 214.811 521.945 214.365C519.77 214.224 518.425 215.117 516.569 216.176C515.051 215.978 515.051 215.978 514.018 215.538C514.018 214.275 514.018 213.013 514.018 211.712C510.02 211.922 506.022 212.133 501.902 212.35C501.902 211.087 501.902 209.824 501.902 208.523C500.378 207.286 500.378 207.286 498.714 206.61C498.58 206.967 498.452 207.318 498.318 207.688C497.088 209.754 495.5 210.87 493.612 212.35C495.085 212.56 496.558 212.77 498.076 212.987C498.076 213.619 498.076 214.25 498.076 214.9C493.013 216.896 488.026 218.765 482.733 220.04C479.079 220.965 476.637 221.941 473.843 224.466C473.633 224.887 473.423 225.308 473.206 225.741C474.679 225.741 476.152 225.741 477.67 225.741C476.7 228.203 475.438 229.434 473.206 230.843C471.318 231.143 469.488 231.085 467.588 231.002C467.084 230.989 466.58 230.977 466.064 230.97C464.833 230.938 463.596 230.894 462.365 230.843C462.575 232.316 462.786 233.789 463.003 235.307C459.974 235.944 459.974 235.944 458.539 235.944C458.596 236.671 458.596 236.671 458.66 237.417C458.539 239.133 458.539 239.133 457.78 240.211C456.402 241.212 455.025 241.684 453.437 242.321C451.154 243.661 448.935 245.102 446.741 246.588C444.937 247.531 443.253 247.92 441.27 248.348C439.892 248.679 439.892 248.679 438.292 249.814C437.82 250.076 437.342 250.337 436.857 250.611C435.505 250.171 435.505 250.171 434.306 249.336C433.675 248.915 433.044 248.494 432.393 248.061C432.661 247.13 432.942 246.199 433.229 245.268C433.388 244.751 433.541 244.234 433.7 243.699C434.306 242.321 434.306 242.321 436.219 241.046C436.43 240.415 436.64 239.783 436.857 239.133C438.088 238.82 439.325 238.514 440.568 238.24C442.794 237.628 444.535 236.442 446.422 235.147C446.811 234.892 447.194 234.637 447.596 234.369C450.076 232.711 452.474 230.97 454.84 229.147C457.799 226.94 460.809 225.116 464.278 223.828C465.228 223.197 465.228 223.197 466.191 222.553C465.139 222.342 464.087 222.132 463.003 221.915C462.792 222.546 462.582 223.178 462.365 223.828C460.42 224.804 458.398 224.504 456.269 224.466C454.681 224.434 453.112 224.434 451.524 224.466C451.314 224.676 451.103 224.887 450.886 225.104C449.611 225.084 448.336 225.059 447.067 225.002C445.581 225.014 445.581 225.014 443.872 226.379C441.882 226.5 441.882 226.5 440.045 226.379C439.835 226.169 439.625 225.958 439.408 225.741C437.673 225.722 435.958 225.741 434.223 225.799C433.7 225.811 433.171 225.824 432.635 225.837C431.519 225.869 430.404 225.901 429.288 225.933C427.591 225.977 425.901 226.022 424.205 226.066C423.121 226.092 422.037 226.124 420.953 226.156C420.449 226.169 419.952 226.181 419.429 226.194C417.057 226.264 414.729 226.411 412.376 226.73C410.246 226.998 408.939 226.832 406.885 226.379C405.476 226.519 405.476 226.519 404.334 227.017C404.124 227.438 403.914 227.858 403.697 228.292C404.067 228.356 404.443 228.426 404.825 228.496C410.399 230.199 414.34 236.984 417.675 241.39C418.058 241.894 418.447 242.398 418.842 242.921C419.18 243.374 419.518 243.826 419.869 244.292C421.635 246.352 422.936 247.315 425.621 247.863C428.484 248.896 429.16 250.165 430.837 252.588C433.037 255.496 436.187 255.866 439.567 256.593C443.521 257.448 446.729 258.87 450.249 260.815C450.918 261.114 451.588 261.42 452.283 261.733C455.274 263.397 457.933 265.106 459.291 268.333C460.369 272.535 460.694 276.942 458.698 280.864C454.744 284.582 449.126 286.393 443.999 287.776C441.959 288.446 440.473 289.485 438.77 290.786C439.153 293.312 440.428 294.88 441.959 296.883C445.3 301.283 445.281 304.376 445.307 309.758C445.326 310.785 445.326 310.785 445.345 311.83C445.377 317.468 444.49 320.892 440.683 325.222C441.104 325.541 441.525 325.853 441.959 326.179C443.425 328.015 443.636 329.278 443.534 331.618C443.036 333.71 441.672 334.762 440.045 336.063C440.294 336.318 440.537 336.573 440.792 336.835C444.407 340.782 447.041 345.163 446.799 350.679C446.091 353.185 444.159 354.582 441.959 355.831C439.357 356.603 436.8 356.558 434.109 356.552C433.598 356.552 433.082 356.552 432.559 356.558C431.475 356.558 430.391 356.552 429.307 356.552C427.661 356.552 426.01 356.552 424.358 356.558C423.3 356.558 422.247 356.552 421.195 356.552C420.704 356.552 420.213 356.558 419.709 356.558C417.267 356.546 414.997 356.425 412.625 355.831C412.548 356.539 412.465 357.254 412.382 357.987C411.987 360.295 411.987 360.295 410.711 361.571C409.041 361.328 409.041 361.328 407.523 360.933C407.523 361.354 407.523 361.775 407.523 362.208C407.944 362.419 408.365 362.629 408.798 362.846C409.124 365.958 409.206 367.846 407.204 370.339C403.499 374.076 400.285 375.135 395.011 375.402C389.852 375.224 389.852 375.224 387.793 373.247C385.663 369.988 385.975 365.933 386.479 362.208C386.689 361.813 386.893 361.418 387.11 361.01C387.844 359.466 387.997 358.261 388.143 356.565C389.4 343.951 389.4 343.951 394.131 339.251C394.552 338.792 394.967 338.339 395.4 337.868C397.128 336.292 398.914 336.012 401.146 335.425C401.356 335.004 401.567 334.583 401.784 334.15C400.731 334.15 399.679 334.15 398.595 334.15C398.595 333.729 398.595 333.308 398.595 332.874C397.996 332.964 397.996 332.964 397.384 333.059C396.861 333.129 396.344 333.2 395.802 333.27C395.286 333.346 394.769 333.423 394.233 333.499C393.781 333.499 393.328 333.506 392.856 333.512C392.435 333.091 392.014 332.67 391.58 332.237C391.695 330.489 392.072 329.826 393.334 328.608C394.89 327.703 396.178 327.384 397.957 327.135C397.537 326.714 397.116 326.293 396.682 325.86C396.408 325.088 396.408 325.088 396.121 324.304C395.305 322.448 394.495 321.893 392.856 320.758C392.48 320.988 392.097 321.217 391.708 321.453C386.9 324.144 382.984 324.776 377.602 323.507C376.078 323.06 374.579 322.576 373.087 322.034C373.183 323.22 373.183 323.22 373.285 324.425C373.272 326.529 373.196 326.995 371.85 328.729C369.229 330.018 367.029 330.228 364.16 329.686C362.208 328.411 362.208 328.411 360.971 327.135C361.181 325.872 361.392 324.61 361.609 323.309C360.818 323.258 360.027 323.207 359.217 323.15C357.266 322.907 356.552 322.703 354.913 321.517C353.956 320.12 353.956 320.12 353.956 317.57C355.627 316.773 355.627 316.773 357.783 316.294C359.083 317.104 360.359 317.959 361.609 318.845C363.496 319.419 365.403 319.789 367.348 320.12C366.927 319.827 366.5 319.534 366.066 319.228C361.921 316.167 359.657 313.425 357.783 308.642C357.547 308.093 357.317 307.545 357.075 306.978C356.373 305.09 356.335 303.63 356.507 301.627C356.928 300.996 357.349 300.365 357.783 299.714C357.802 298.547 357.802 298.547 357.821 297.361C358.146 294.071 360.193 292.61 362.616 290.57C364.153 289.517 365.594 288.854 367.348 288.236C367.348 287.815 367.348 287.394 367.348 286.96C366.34 286.979 366.34 286.979 365.314 286.998C363.311 286.967 361.628 286.788 359.696 286.323C359.683 286.807 359.67 287.298 359.657 287.796C359.46 288.363 359.262 288.931 359.058 289.511C358.35 289.811 357.636 290.117 356.903 290.429C354.46 291.22 354.46 291.22 353.395 293.375C353.159 293.994 352.923 294.613 352.681 295.25C352.471 295.671 352.26 296.092 352.043 296.526C352.675 296.526 353.306 296.526 353.956 296.526C353.733 302.354 353.733 302.354 352.203 304.376C351.731 304.733 351.253 305.09 350.768 305.453C350.213 306.034 349.665 306.614 349.097 307.207C347.579 308.642 347.579 308.642 346.304 308.642C346.215 309.114 346.119 309.592 346.023 310.077C344.499 312.761 342.082 313.316 339.289 314.381C338.868 314.592 338.448 314.802 338.014 315.019C336.177 315.064 334.354 315.076 332.517 315.057C331.745 315.057 331.745 315.057 330.967 315.051C329.698 315.044 328.436 315.032 327.173 315.019C327.384 313.967 327.594 312.914 327.811 311.83C328.653 311.83 329.494 311.83 330.362 311.83C330.362 311.41 330.362 310.989 330.362 310.555C329.96 310.561 329.564 310.568 329.15 310.581C328.627 310.581 328.11 310.587 327.568 310.593C327.052 310.6 326.535 310.612 326 310.619C324.622 310.555 324.622 310.555 323.347 309.917C323.347 309.496 323.347 309.076 323.347 308.642C322.926 308.642 322.505 308.642 322.071 308.642C322.665 309.79 323.264 310.931 323.863 312.073C324.195 312.704 324.533 313.342 324.871 313.999C325.828 315.803 325.828 315.803 327.811 316.932C327.173 318.845 327.173 318.845 325.458 319.878C322.709 321.6 320.949 324.259 319.521 327.135C319.521 327.977 319.521 328.819 319.521 329.686C320.248 329.195 320.248 329.195 320.994 328.691C321.561 328.385 322.129 328.085 322.709 327.773C323.341 327.983 323.972 328.194 324.622 328.411C324.405 330.247 324.125 330.847 322.665 332.045C322.142 332.371 321.619 332.696 321.077 333.034C320.547 333.365 320.018 333.697 319.476 334.041C319.074 334.284 318.666 334.532 318.245 334.788C319.195 335.419 319.195 335.419 320.158 336.063C320.311 335.661 320.458 335.266 320.618 334.851C321.663 333.136 322.397 332.989 324.303 332.479C326.618 331.854 326.618 331.854 328.448 330.324C330.126 330.247 330.126 330.247 331.637 330.324C331.503 330.77 331.375 331.216 331.242 331.676C330.935 333.984 331.331 335.215 332.275 337.338C336.809 341.011 342.255 341.713 347.854 342.172C349.964 342.421 351.38 342.931 353.319 343.715C354.76 343.894 356.214 344.028 357.661 344.111C358.771 344.187 358.771 344.187 359.906 344.257C360.467 344.289 361.028 344.321 361.609 344.353C361.819 345.405 362.03 346.457 362.246 347.541C357.138 350.717 352.088 350.347 346.304 350.092C348.109 352.311 349.862 354.429 352.12 356.189C353.956 357.745 353.956 357.745 355.111 359.619C358.223 363.975 362.942 365.952 367.986 367.31C367.775 367.941 367.565 368.573 367.348 369.223C361.577 369.568 357.712 369.3 353.229 365.525C352.266 364.657 351.31 363.79 350.36 362.916C345.756 358.752 345.756 358.752 340.048 356.75C338.141 357.088 336.566 357.541 334.825 358.382C335.221 360.908 336.024 363.127 336.981 365.48C337.376 366.672 337.376 366.672 337.376 368.585C336.955 368.585 336.534 368.585 336.101 368.585C335.049 366.06 333.996 363.535 332.912 360.933C332.702 361.985 332.491 363.037 332.275 364.122C330.546 363.261 330.387 362.33 329.647 360.576C329.418 360.047 329.195 359.517 328.959 358.975C328.793 358.574 328.621 358.165 328.448 357.745C327.607 357.745 326.765 357.745 325.898 357.745C325.898 360.27 325.898 362.795 325.898 365.397C325.477 365.397 325.056 365.397 324.622 365.397C324.303 363.184 324.303 363.184 323.985 360.933C322.511 360.933 321.038 360.933 319.521 360.933C319.731 359.25 319.942 357.566 320.158 355.831C319.527 355.831 318.896 355.831 318.245 355.831C317.926 354.881 317.926 354.881 317.608 353.918C317.308 354.327 317.008 354.735 316.696 355.149C316.103 355.94 316.103 355.94 315.497 356.75C315.101 357.273 314.712 357.796 314.304 358.338C313.144 359.658 313.144 359.658 311.231 360.295C310.714 358.663 310.714 358.663 310.593 356.469C311.473 354.824 312.57 353.421 313.781 352.005C311.345 352.962 310.274 354.448 308.68 356.469C308.259 356.469 307.838 356.469 307.404 356.469C307.494 356.112 307.589 355.761 307.685 355.391C308.061 353.848 308.367 352.286 308.68 350.73C305.523 353.255 305.523 353.255 302.303 355.831C301.984 354.881 301.984 354.881 301.665 353.918C301.876 353.708 302.086 353.498 302.303 353.281C301.882 352.86 301.461 352.439 301.027 352.005C302.921 349.793 302.921 349.793 304.854 347.541C302.539 348.358 302.539 348.358 300.632 349.85C300.339 350.143 300.052 350.43 299.752 350.73C299.121 350.73 298.489 350.73 297.839 350.73C298.26 349.678 298.681 348.626 299.114 347.541C298.694 347.331 298.273 347.121 297.839 346.904C298.477 344.991 298.477 344.991 299.114 344.353C298.483 344.774 297.852 345.195 297.201 345.628C295.486 345.705 295.486 345.705 294.013 345.628C294.223 344.997 294.434 344.366 294.651 343.715C296.921 342.956 296.921 342.956 299.114 342.44C298.694 340.437 298.694 340.437 297.106 339.806C294.051 338.716 291.322 337.868 288.076 337.695C284.798 337.472 283.465 336.573 281.259 334.15C279.314 331.191 280.143 327.919 280.621 324.584C280.015 324.565 279.403 324.552 278.778 324.533C277.981 324.501 277.178 324.463 276.355 324.425C275.564 324.393 274.773 324.368 273.957 324.336C271.362 323.889 270.31 323.283 268.505 321.396C266.458 317.723 266.834 313.348 267.23 309.28C267.982 307.252 269.155 306.027 270.743 304.567C272.108 303.094 272.758 301.43 273.568 299.612C274.244 298.439 274.244 298.439 276.157 297.163C276.789 297.163 277.42 297.163 278.07 297.163C277.86 295.901 277.649 294.638 277.433 293.337C280.149 290.703 282.081 290.397 285.723 290.149C285.723 289.728 285.723 289.307 285.723 288.873C284.039 288.873 282.356 288.873 280.621 288.873C280.003 287.203 279.939 286.45 280.5 284.728C281.163 283.338 281.826 281.948 282.534 280.583C281.814 280.704 281.087 280.819 280.341 280.94C279.218 281.081 279.218 281.081 278.07 281.221C277.86 281.01 277.649 280.8 277.433 280.583C276.47 280.437 275.494 280.322 274.525 280.226C273.995 280.169 273.466 280.118 272.924 280.06C272.522 280.022 272.114 279.984 271.693 279.946C271.693 280.366 271.693 280.787 271.693 281.221C269.525 281.871 267.497 281.986 265.24 282.018C264.226 282.044 264.226 282.044 263.199 282.069C262.351 281.967 262.351 281.967 261.49 281.859C261.069 281.227 260.648 280.596 260.215 279.946C262.951 279.735 265.686 279.525 268.505 279.308C267.874 278.466 267.242 277.624 266.592 276.757C266.719 274.219 267.765 272.478 269.143 270.38C271.311 271.056 272.975 271.662 274.882 272.931C275.724 272.931 276.565 272.931 277.433 272.931C277.643 272.51 277.854 272.089 278.07 271.655C277.018 271.445 275.966 271.235 274.882 271.018C274.404 269.902 274.404 269.902 274.244 268.467C275.316 266.726 276.298 266.044 278.274 265.54C279.397 265.336 280.519 265.145 281.641 264.953C284.262 264.418 285.844 263.308 287.598 261.331C288.911 260.177 288.911 260.177 290.984 260.017C291.564 260.069 292.144 260.12 292.737 260.177C292.157 257.365 291.755 255.496 290.11 253.124C288.191 250.12 288.65 247.391 289.389 244.037C290.945 239.853 294.51 236.614 298.477 234.669C302.182 233.617 306.11 233.693 309.885 234.35C312.461 234.765 314.968 234.765 317.569 234.746C318.06 234.752 318.551 234.752 319.062 234.758C323.793 234.746 327.307 234.701 330.999 231.481C331.58 231.206 332.16 230.926 332.753 230.645C334.679 229.644 335.922 228.63 337.536 227.214C340.15 225.155 341.878 224.568 345.188 224.829C351.048 225.741 355.149 226.519 359.555 230.626C360.805 233.017 360.627 235.479 360.652 238.138C360.563 243.15 360.563 243.15 362.884 247.423C365.352 248.399 368.024 248.501 370.536 247.608C373.495 245.746 374.981 243.036 376.658 240.045C378.552 236.761 381.154 234.057 383.928 231.481C384.508 230.9 385.089 230.326 385.682 229.727C388.87 227.45 393.003 227.827 396.771 227.744C398.653 227.673 400.011 227.514 401.784 227.017C399.973 226.589 398.436 226.379 396.561 226.417C394.769 226.379 394.769 226.379 393.494 225.104C391.07 225.046 388.679 225.11 386.256 225.212C383.22 225.282 381.849 225.18 379.464 223.19C377.564 222.935 377.564 222.935 375.562 223.031C374.548 223.044 374.548 223.044 373.521 223.063C371.831 223.082 371.831 223.082 370.536 223.828C369.338 223.79 368.145 223.701 366.953 223.586C366.258 223.528 365.562 223.465 364.848 223.395C363.356 223.241 361.864 223.044 360.372 222.833C355.971 222.253 351.291 222.183 346.903 222.91C345.143 223.171 344.129 223.146 342.478 222.553C342.478 221.711 342.478 220.869 342.478 220.002C341.234 219.881 341.234 219.881 339.965 219.76C331.184 218.739 331.184 218.739 327.811 214.9C326.771 214.231 325.713 213.58 324.622 212.987C324.833 212.146 325.043 211.304 325.26 210.437C327.332 210.277 327.332 210.277 329.724 210.437C331.12 211.635 331.12 211.635 332.275 212.987C334.334 214.263 336.209 214.537 338.601 214.786C339.347 214.862 340.099 214.945 340.864 215.022C341.649 215.104 342.433 215.181 343.237 215.258C343.983 215.34 344.735 215.417 345.507 215.5C355.028 216.488 364.523 216.916 374.095 216.922C375.058 216.922 376.021 216.922 376.984 216.928C378.98 216.928 380.969 216.935 382.965 216.935C385.516 216.935 388.06 216.941 390.611 216.954C392.588 216.96 394.565 216.96 396.548 216.96C397.486 216.96 398.429 216.96 399.367 216.967C400.674 216.973 401.988 216.973 403.295 216.967C404.035 216.967 404.774 216.973 405.54 216.973C407.536 216.813 408.9 216.348 410.711 215.538C412.331 215.366 412.331 215.366 414.021 215.379C414.569 215.372 415.118 215.372 415.679 215.366C417.42 215.513 418.944 215.793 420.64 216.176C423.969 216.852 427.151 216.998 430.537 216.986C431.411 216.986 431.411 216.986 432.304 216.986C433.522 216.986 434.74 216.986 435.958 216.979C437.826 216.973 439.695 216.979 441.563 216.986C442.749 216.986 443.942 216.986 445.128 216.986C445.963 216.986 445.963 216.986 446.824 216.992C449.796 217.107 449.796 217.107 452.162 215.538C454.515 215.411 456.294 215.43 458.539 216.176C461.415 216.297 461.415 216.297 464.24 215.857C466.816 215.232 469.565 215.283 472.134 215.882C473.907 216.189 475.208 216.112 476.975 215.844C477.555 215.755 478.129 215.672 478.728 215.583C479.328 215.487 479.921 215.398 480.539 215.296C481.139 215.213 481.732 215.124 482.35 215.028C485.054 214.62 487.745 214.173 490.424 213.625C490.475 213.23 490.526 212.834 490.583 212.426C491.061 211.074 491.061 211.074 492.375 210.277C492.783 210.118 493.191 209.958 493.612 209.799C493.612 209.167 493.612 208.536 493.612 207.886C492.993 207.663 492.375 207.439 491.737 207.21C489.786 205.973 489.786 205.973 489.225 203.62C489.186 202.574 489.186 202.574 489.148 201.509C488.453 201.56 487.752 201.617 487.037 201.668C484.684 201.509 484.684 201.509 483.447 200.514C482.548 198.448 482.644 196.72 482.771 194.494C484.404 193.933 484.404 193.933 486.597 193.856C487.905 194.711 488.97 195.674 490.092 196.758C491.036 197.746 491.036 197.746 492.337 198.32C493.402 198.269 494.46 198.199 495.525 198.123C499.198 198.072 501.194 199.149 504.185 201.177C506.092 202.376 507.96 202.963 510.122 203.524C511.468 204.06 511.468 204.06 512.941 205.399C515.249 207.025 516.461 206.751 519.241 206.451C524.891 205.928 530.496 205.941 536.172 206.056C539.915 206.094 543.321 205.858 546.975 205.022C549.245 204.525 551.528 204.276 553.836 204.021C557.248 203.645 557.248 203.645 560.57 202.784C561.559 202.733 562.554 202.714 563.548 202.72C564.116 202.727 564.683 202.727 565.27 202.727C566.163 202.733 566.163 202.733 567.068 202.746C567.668 202.746 568.267 202.752 568.886 202.752C570.365 202.759 571.845 202.771 573.324 202.784C573.114 202.363 572.903 201.942 572.687 201.509C571.698 201.541 571.698 201.541 570.684 201.579C569.811 201.592 568.937 201.611 568.063 201.63C567.63 201.643 567.196 201.662 566.743 201.675C563.925 201.719 562.726 201.311 560.57 199.596C558.593 199.277 558.593 199.277 556.464 199.239C553.658 199.13 551.668 198.748 549.092 197.683C546.962 197.313 544.832 197.038 542.689 196.764C540.802 196.407 540.802 196.407 538.889 195.132C538.321 194.985 537.76 194.845 537.173 194.692C532.116 192.689 528.877 188.238 525.612 184.068C524.222 182.314 524.222 182.314 522.455 180.675C521.033 179.189 521.033 179.189 521.033 177.474C522.245 174.681 524.011 174.579 526.772 174.725Z" fill="#FEDCEB"/>
<path d="M639.034 0.208168C640.297 0.641803 641.521 1.12645 642.752 1.63023C647.139 3.39666 651.667 2.58678 656.226 1.91082C661.532 1.4453 665.218 3.27549 669.497 6.31731C674.369 8.73418 681.109 7.86691 686.39 7.9817C687.136 8.00083 687.882 8.01996 688.653 8.04547C689.329 8.05822 690.005 8.07735 690.7 8.09011C692.613 8.28779 694.01 8.79157 695.764 9.56319C697.562 9.88204 699.354 10.118 701.165 10.3539C703.142 10.947 703.665 11.6357 704.691 13.3894C705.393 15.5575 705.297 17.5153 705.208 19.7663C705.151 22.8082 705.929 23.8093 707.88 26.1433C707.816 29.6507 706.802 32.7499 704.462 35.4154C703.327 36.423 702.275 36.9906 700.904 37.6219C699.016 38.521 697.377 39.4648 695.764 40.8104C695.866 41.346 695.968 41.8881 696.07 42.4429C696.593 45.9311 696.542 49.4065 696.554 52.9202C696.561 54.2403 696.58 55.5539 696.599 56.874C696.605 58.1238 696.605 58.1238 696.612 59.4056C696.612 60.1645 696.618 60.9233 696.625 61.7077C696.376 63.9779 695.859 65.1449 694.488 66.9559C692.575 68.2313 692.575 68.2313 691.332 68.1166C689.776 67.4916 688.813 66.669 687.55 65.5594C683.392 62.2051 678.048 59.7755 672.807 58.6659C672.596 59.2972 672.386 59.9285 672.169 60.579C669.153 61.0891 666.366 61.2486 663.311 61.1146C661.692 61.2358 660.741 61.5547 659.415 62.4921C659.268 63.7866 659.128 65.0811 659.032 66.382C658.777 67.5936 658.777 67.5936 657.298 68.7096C656.737 68.9711 656.169 69.2325 655.589 69.5067C655.155 69.9404 654.721 70.374 654.269 70.8204C653.032 72.0639 652.12 72.7207 650.487 73.3329C649.645 73.3329 648.804 73.3329 647.936 73.3329C647.879 73.7857 647.822 74.2385 647.758 74.7104C646.553 79.4357 642.471 83.5871 638.843 86.7054C636.05 88.3507 632.899 88.0318 629.768 87.9234C629.322 87.9043 628.869 87.8915 628.41 87.8788C626.988 87.8278 625.566 87.7704 624.138 87.7194C623.175 87.6875 622.205 87.6492 621.236 87.6173C618.87 87.5344 616.504 87.4515 614.138 87.3623C614.119 87.7385 614.094 88.1147 614.075 88.4974C613.692 93.4459 611.913 95.9903 608.399 99.4785C605.287 102.042 601.946 103.675 598.247 105.211C596.226 106.193 594.752 107.545 593.094 109.044C591.047 110.064 588.93 109.994 586.717 109.682C584.645 108.298 584.25 107.482 583.688 105.058C583.631 104.478 583.58 103.898 583.529 103.305C582.828 103.617 582.132 103.923 581.412 104.242C578.089 105.486 574.965 105.498 571.451 105.454C570.852 105.46 570.252 105.473 569.64 105.479C565.763 105.46 562.166 105.058 558.659 103.305C556.529 99.0449 556.809 90.5763 558.098 86.0231C559.188 83.6572 560.782 81.6676 562.485 79.7099C561.503 77.9052 560.591 76.5405 559.092 75.1249C556.204 72.1022 553.902 68.7925 553.117 64.6411C554.099 59.8201 557.205 56.2936 561.21 53.5643C568.365 49.4894 578.989 47.6082 587.036 49.4703C588.892 50.108 590.403 50.8987 591.934 52.1295C593.082 53.086 593.082 53.086 594.727 52.8883C596.64 52.1486 597.188 51.5109 598.196 49.7381C597.801 44.4962 594.944 39.7199 592.061 35.4537C590.467 32.4565 590.601 29.4338 591.181 26.1433C593.547 21.52 599.051 17.7704 603.891 16.1697C606.078 15.5512 608.284 15.0474 610.504 14.5627C612.41 14.1291 614.126 13.6317 615.93 12.9111C617.965 12.114 617.965 12.114 619.878 12.114C620.088 11.0618 620.299 10.0096 620.515 8.92549C621.185 9.06578 621.855 9.21245 622.543 9.3655C624.922 9.74174 624.922 9.74174 626.771 8.84259C628.263 7.7585 628.263 7.7585 628.729 6.13238C630.476 2.03836 634.602 -0.812147 639.034 0.208168Z" fill="#FEDCEB"/>
<path d="M505.73 107.767C507.445 109.164 507.445 109.164 508.918 110.956C509.403 111.415 509.894 111.874 510.391 112.352C512.011 115.05 511.941 117.454 511.469 120.521C510.921 121.982 510.257 123.34 509.556 124.73C508.829 126.477 508.599 128.046 508.357 129.927C507.018 138.829 502.114 145.315 495.431 151.029C494.251 151.768 494.251 151.768 492.338 151.768C492.376 152.463 492.415 153.165 492.459 153.879C492.338 156.232 492.338 156.232 491.637 157.316C489.864 158.528 488.327 158.432 486.203 158.502C484.845 158.553 483.487 158.636 482.135 158.783C481.924 159.204 481.714 159.625 481.497 160.058C484.864 160.269 488.231 160.479 491.7 160.696C492.019 159.433 492.019 159.433 492.338 158.145C492.549 157.935 492.759 157.724 492.976 157.508C496.4 157.699 497.688 158.254 499.99 160.696C501.648 161.64 503.357 162.456 505.092 163.247C505.302 163.036 505.513 162.826 505.73 162.609C509.352 161.914 512.891 161.908 516.571 161.972C516.634 165.893 516.634 165.893 516.571 167.073C515.589 168.055 514.67 167.845 513.306 167.87C510.334 167.851 508.357 167.137 505.73 165.798C506.361 166.863 506.361 166.863 507.005 167.953C508.28 170.102 508.28 170.102 508.28 171.537C508.752 171.709 509.231 171.881 509.715 172.053C512.757 173.367 512.757 173.367 514.02 174.725C514.383 176.881 514.504 178.392 513.344 180.305C512.209 181.702 511.176 182.843 509.556 183.653C508.344 183.685 507.139 183.711 505.927 183.73C503.051 183.947 501.546 184.202 499.595 186.363C499.251 186.765 498.913 187.161 498.562 187.575C495.004 191.325 490.54 192.16 485.585 192.377C483.474 192.658 482.403 193.729 480.86 195.132C479.508 195.17 479.508 195.17 478.309 194.494C477.665 193.435 477.027 192.371 476.396 191.306C475.337 190.662 474.272 190.024 473.207 189.392C471.817 187.25 471.562 185.037 471.218 182.537C471.052 181.415 471.052 181.415 470.892 180.273C470.816 179.706 470.733 179.138 470.656 178.552C469.987 178.973 469.317 179.393 468.622 179.827C466.658 180.962 465.306 181.383 463.004 181.102C463.004 180.261 463.004 179.419 463.004 178.552C462.526 178.443 462.041 178.335 461.55 178.22C459.076 176.874 458.527 174.853 457.584 172.334C456.2 168.725 454.739 166.148 452.163 163.247C451.965 162.749 451.768 162.246 451.564 161.729C450.518 159.147 448.802 157.119 447.062 154.957C446.666 154.447 446.271 153.93 445.863 153.401C443.809 151.89 441.934 151.934 439.409 151.768C439.199 151.137 438.988 150.506 438.771 149.855C439.09 149.224 439.09 149.224 439.409 148.58C441.514 148.58 443.618 148.58 445.786 148.58C445.646 148.076 445.512 147.579 445.365 147.062C444.409 143.44 443.618 140.213 443.873 136.464C441.979 136.464 440.085 136.464 438.134 136.464C437.923 135.622 437.713 134.78 437.496 133.913C437.891 133.69 438.287 133.466 438.695 133.237C440.532 131.56 440.78 129.914 441.322 127.536C443.082 127.083 444.224 126.822 445.997 127.313C448.28 127.612 449.249 126.917 451.207 125.744C456.544 122.587 460.396 122.217 466.524 122.186C467.104 122.173 467.691 122.154 468.29 122.141C469.088 122.135 469.088 122.135 469.897 122.122C471.76 121.688 472.142 120.783 473.207 119.246C474.923 119.086 474.923 119.086 476.396 119.246C476.817 120.298 477.237 121.35 477.671 122.434C478.156 122.396 478.647 122.358 479.144 122.313C480.86 122.434 480.86 122.434 481.816 123.429C482.135 123.735 482.447 124.035 482.773 124.347C484.73 124.213 485.693 123.971 487.115 122.594C487.625 121.886 487.625 121.886 488.155 121.159C488.537 120.642 488.92 120.126 489.315 119.59C490.017 118.57 490.686 117.53 491.311 116.472C494.213 111.613 499.608 106.301 505.73 107.767Z" fill="#FEDCEB"/>
<path d="M526.771 174.725C527.154 175.497 527.543 176.269 527.925 177.034C528.161 177.506 528.397 177.971 528.64 178.45C529.194 179.572 529.724 180.713 530.24 181.861C532.612 186.127 535.814 187.652 540.163 189.393C540.584 189.603 541.005 189.813 541.438 190.03C542.79 190.164 544.148 190.266 545.507 190.349C549.473 190.598 549.473 190.598 551.214 191.063C551.565 191.146 551.916 191.223 552.279 191.306C552.566 191.006 552.859 190.7 553.159 190.387C554.192 189.393 554.192 189.393 556.226 189.271C556.819 189.31 557.406 189.354 558.018 189.393C558.261 190.451 558.471 191.51 558.656 192.581C558.018 193.219 558.018 193.219 556.386 193.257C555.869 193.244 555.359 193.231 554.83 193.219C554.83 193.64 554.83 194.06 554.83 194.494C557.336 194.131 557.336 194.131 559.294 192.581C560.575 192.581 561.857 192.587 563.139 192.658C564.606 192.67 564.606 192.67 566.308 191.306C569.101 191.548 572.105 192.568 574.598 193.856C575.019 194.488 575.44 195.119 575.874 195.769C576.371 195.967 576.875 196.165 577.392 196.369C579.062 197.045 579.062 197.045 580.127 198.32C582.155 200.061 584.068 200.131 586.638 200.31C587.148 200.361 587.658 200.406 588.181 200.45C591.676 200.75 595.171 200.967 598.672 201.184C599.099 201.209 599.526 201.241 599.966 201.266C602.109 201.4 604.245 201.528 606.388 201.649C607.185 201.694 607.975 201.738 608.792 201.789C609.5 201.828 610.207 201.866 610.934 201.904C613.587 202.236 615.417 202.791 617.324 204.697C617.324 205.539 617.324 206.381 617.324 207.248C611.91 209.952 603.276 208.447 597.422 207.822C596.095 207.682 594.769 207.561 593.442 207.433C586.983 206.789 586.983 206.789 584.802 205.335C582.761 205.545 581.007 205.96 579.062 206.61C580.115 206.61 581.167 206.61 582.251 206.61C578.087 211.157 572.736 211.89 566.825 212.19C565.167 212.26 563.509 212.311 561.844 212.35C561.844 211.929 561.844 211.508 561.844 211.074C558.497 210.328 555.295 210.322 551.884 210.315C550.965 210.303 550.965 210.303 550.034 210.296C549.161 210.29 549.161 210.29 548.268 210.29C547.739 210.29 547.209 210.283 546.661 210.283C545.079 210.347 545.079 210.347 543.351 211.712C541.317 211.788 541.317 211.788 539.525 211.712C539.525 212.343 539.525 212.975 539.525 213.625C538.473 213.835 537.421 214.046 536.337 214.263C536.337 213.842 536.337 213.421 536.337 212.987C535.648 213.325 535.648 213.325 534.94 213.663C532.95 214.326 531.949 214.193 529.96 213.625C529.96 213.204 529.96 212.783 529.96 212.35C529.564 212.783 529.169 213.217 528.761 213.663C526.178 215.264 524.845 214.811 521.944 214.365C519.769 214.224 518.424 215.117 516.568 216.176C515.05 215.978 515.05 215.978 514.017 215.538C514.017 214.275 514.017 213.013 514.017 211.712C510.019 211.922 506.02 212.133 501.901 212.35C501.901 211.087 501.901 209.824 501.901 208.523C500.377 207.286 500.377 207.286 498.712 206.61C498.579 206.967 498.451 207.318 498.317 207.688C497.086 209.754 495.498 210.87 493.611 212.35C495.084 212.56 496.557 212.77 498.075 212.987C498.075 213.619 498.075 214.25 498.075 214.9C493.011 216.896 488.025 218.765 482.732 220.04C479.078 220.965 476.635 221.941 473.842 224.466C473.632 224.887 473.421 225.308 473.205 225.741C474.678 225.741 476.151 225.741 477.668 225.741C476.699 228.203 475.436 229.434 473.205 230.843C471.317 231.143 469.487 231.085 467.586 231.002C467.083 230.989 466.579 230.977 466.062 230.97C464.832 230.938 463.594 230.894 462.364 230.843C462.574 232.316 462.785 233.789 463.001 235.307C459.972 235.944 459.972 235.944 458.538 235.944C458.576 236.429 458.614 236.92 458.659 237.417C458.538 239.133 458.538 239.133 457.779 240.211C456.401 241.212 455.024 241.684 453.436 242.321C451.153 243.661 448.934 245.102 446.74 246.588C444.935 247.531 443.252 247.92 441.269 248.348C439.891 248.679 439.891 248.679 438.291 249.814C437.819 250.076 437.34 250.337 436.856 250.611C435.504 250.171 435.504 250.171 434.305 249.336C433.674 248.915 433.042 248.494 432.392 248.061C432.66 247.13 432.94 246.199 433.227 245.268C433.387 244.751 433.54 244.234 433.699 243.699C434.305 242.321 434.305 242.321 436.218 241.046C436.429 240.415 436.639 239.783 436.856 239.133C438.087 238.82 439.324 238.514 440.567 238.24C442.793 237.628 444.534 236.442 446.421 235.147C446.81 234.892 447.193 234.637 447.595 234.369C450.075 232.711 452.473 230.97 454.839 229.147C457.798 226.94 460.808 225.116 464.277 223.828C464.908 223.407 465.539 222.986 466.19 222.553C465.138 222.342 464.085 222.132 463.001 221.915C462.791 222.546 462.581 223.178 462.364 223.828C460.419 224.804 458.397 224.504 456.267 224.466C454.679 224.434 453.111 224.434 451.523 224.466C451.312 224.676 451.102 224.887 450.885 225.104C449.61 225.084 448.334 225.059 447.065 225.002C445.58 225.014 445.58 225.014 443.87 226.379C441.881 226.5 441.881 226.5 440.044 226.379C439.834 226.169 439.623 225.958 439.407 225.741C437.672 225.722 435.957 225.741 434.222 225.799C433.699 225.811 433.17 225.824 432.634 225.837C431.518 225.869 430.402 225.901 429.286 225.933C427.59 225.977 425.9 226.022 424.204 226.066C423.12 226.092 422.036 226.124 420.952 226.156C420.448 226.169 419.95 226.181 419.428 226.194C417.049 226.264 414.721 226.411 412.355 226.73C410.181 227.004 408.982 226.832 406.884 226.379C404.269 226.315 401.649 226.398 399.034 226.462C398.505 226.468 397.975 226.475 397.433 226.481C396.949 226.494 396.47 226.5 395.973 226.513C394.768 226.379 394.768 226.379 393.492 225.104C391.069 225.046 388.678 225.11 386.255 225.212C383.219 225.282 381.848 225.18 379.463 223.19C377.563 222.935 377.563 222.935 375.56 223.031C374.546 223.044 374.546 223.044 373.52 223.063C371.83 223.082 371.83 223.082 370.535 223.828C369.336 223.79 368.144 223.701 366.951 223.586C366.256 223.528 365.561 223.465 364.847 223.395C363.355 223.241 361.863 223.044 360.37 222.833C355.97 222.253 351.29 222.183 346.902 222.91C345.142 223.171 344.128 223.146 342.477 222.553C342.477 221.711 342.477 220.869 342.477 220.002C341.233 219.881 341.233 219.881 339.964 219.76C331.183 218.739 331.183 218.739 327.81 214.9C326.77 214.231 325.712 213.58 324.621 212.987C324.832 212.146 325.042 211.304 325.259 210.437C327.331 210.277 327.331 210.277 329.723 210.437C331.119 211.635 331.119 211.635 332.273 212.987C334.333 214.263 336.208 214.537 338.599 214.786C339.346 214.862 340.098 214.945 340.863 215.022C341.648 215.104 342.432 215.181 343.235 215.258C343.982 215.34 344.734 215.417 345.506 215.5C355.027 216.488 364.522 216.916 374.094 216.922C375.057 216.922 376.019 216.922 376.982 216.928C378.978 216.928 380.968 216.935 382.964 216.935C385.515 216.935 388.059 216.941 390.61 216.954C392.587 216.96 394.564 216.96 396.547 216.96C397.484 216.96 398.428 216.96 399.366 216.967C400.673 216.973 401.987 216.973 403.294 216.967C404.034 216.967 404.773 216.973 405.538 216.973C407.534 216.813 408.899 216.348 410.71 215.538C412.33 215.366 412.33 215.366 414.02 215.379C414.568 215.372 415.117 215.372 415.678 215.366C417.419 215.513 418.943 215.793 420.639 216.176C423.968 216.852 427.15 216.998 430.536 216.986C431.123 216.986 431.703 216.986 432.303 216.986C433.521 216.986 434.739 216.986 435.957 216.979C437.825 216.973 439.694 216.979 441.562 216.986C442.748 216.986 443.941 216.986 445.127 216.986C445.962 216.986 445.962 216.986 446.823 216.992C449.795 217.107 449.795 217.107 452.161 215.538C454.514 215.411 456.293 215.43 458.538 216.176C461.414 216.297 461.414 216.297 464.239 215.857C466.815 215.232 469.563 215.283 472.133 215.882C473.906 216.189 475.207 216.112 476.973 215.844C477.841 215.717 477.841 215.717 478.727 215.583C479.326 215.487 479.92 215.398 480.538 215.296C481.138 215.213 481.731 215.124 482.349 215.028C485.053 214.62 487.744 214.173 490.422 213.625C490.473 213.23 490.524 212.834 490.582 212.426C491.06 211.074 491.06 211.074 492.374 210.277C492.782 210.118 493.19 209.958 493.611 209.799C493.611 209.167 493.611 208.536 493.611 207.886C492.992 207.663 492.374 207.439 491.736 207.21C489.785 205.973 489.785 205.973 489.224 203.62C489.185 202.574 489.185 202.574 489.147 201.509C488.452 201.56 487.75 201.617 487.036 201.668C484.683 201.509 484.683 201.509 483.446 200.514C482.547 198.448 482.642 196.72 482.77 194.494C484.403 193.933 484.403 193.933 486.596 193.856C487.903 194.711 488.968 195.674 490.091 196.758C491.035 197.746 491.035 197.746 492.335 198.32C493.4 198.269 494.459 198.199 495.524 198.123C499.197 198.072 501.193 199.149 504.184 201.177C506.091 202.376 507.959 202.963 510.121 203.524C511.466 204.06 511.466 204.06 512.939 205.399C515.248 207.025 516.46 206.751 519.24 206.451C524.89 205.928 530.495 205.941 536.171 206.056C539.914 206.094 543.319 205.858 546.973 205.022C549.244 204.525 551.527 204.276 553.835 204.021C557.247 203.645 557.247 203.645 560.569 202.784C561.558 202.733 562.552 202.714 563.547 202.72C564.115 202.727 564.682 202.727 565.269 202.727C566.162 202.733 566.162 202.733 567.067 202.746C567.667 202.746 568.266 202.752 568.885 202.752C570.364 202.759 571.844 202.771 573.323 202.784C573.113 202.363 572.902 201.942 572.685 201.509C571.697 201.541 571.697 201.541 570.683 201.579C569.809 201.592 568.936 201.611 568.062 201.63C567.628 201.643 567.195 201.662 566.742 201.675C563.923 201.719 562.725 201.311 560.569 199.596C558.592 199.277 558.592 199.277 556.462 199.239C553.656 199.13 551.667 198.748 549.091 197.683C546.961 197.313 544.831 197.038 542.688 196.764C540.8 196.407 540.8 196.407 538.887 195.132C538.32 194.985 537.759 194.845 537.172 194.692C532.115 192.689 528.876 188.238 525.611 184.068C524.22 182.314 524.22 182.314 522.454 180.675C521.032 179.189 521.032 179.189 521.032 177.474C522.243 174.681 524.01 174.579 526.771 174.725Z" fill="#AC9079"/>
<path d="M300.552 132.438C303.912 132.719 305.972 133.682 308.261 136.181C308.944 137.093 308.944 137.093 309.639 138.018C312.968 142.399 312.968 142.399 317.916 144.344C319.612 144.287 319.612 144.287 320.562 142.884C320.849 142.354 321.136 141.831 321.436 141.289C322.979 138.484 322.979 138.484 325.065 137.878C325.549 137.833 326.034 137.788 326.538 137.737C327.169 139.211 327.8 140.684 328.451 142.201C330.134 142.201 331.818 142.201 333.552 142.201C333.992 143.241 333.992 143.241 334.19 144.752C333.272 146.825 333.272 146.825 332.277 148.578C333.329 148.578 334.381 148.578 335.465 148.578C335.721 147.985 335.721 147.985 335.982 147.386C336.741 146.028 336.741 146.028 338.654 144.752C340.369 144.994 340.369 144.994 341.842 145.39C341.632 146.863 341.422 148.336 341.205 149.854C342.678 149.643 344.151 149.433 345.669 149.216C346.3 150.479 346.3 150.479 346.944 151.767C347.454 151.652 347.971 151.531 348.5 151.41C349.31 151.269 349.31 151.269 350.133 151.129C350.77 151.767 350.77 151.767 350.853 153.642C350.77 155.593 350.77 155.593 350.133 156.868C350.534 156.887 350.93 156.9 351.344 156.919C352.122 156.977 352.122 156.977 352.919 157.028C353.442 157.06 353.959 157.092 354.494 157.117C355.872 157.506 355.872 157.506 356.694 158.813C356.841 159.221 356.994 159.636 357.147 160.057C357.594 159.974 358.04 159.891 358.505 159.808C362.593 159.215 364.933 159.343 368.332 161.766C369.856 163.143 369.901 163.909 370.061 165.994C369.882 168.583 369.672 169.584 367.988 171.535C362.88 174.756 355.547 176.981 349.495 175.999C347.486 175.483 345.484 174.941 343.494 174.36C341.122 173.691 339.037 173.308 336.581 173.41C334.19 173.448 334.19 173.448 333.112 172.6C332.041 171.236 331.869 170.05 331.639 168.347C329.063 169.15 329.063 169.15 326.621 170.279C323.904 171.516 321.13 171.484 318.248 170.898C316.073 169.52 314.536 167.964 313.146 165.796C312.827 163.564 312.827 163.564 313.146 161.97C312.177 162.066 312.177 162.066 311.195 162.155C308.051 161.925 306.635 160.911 304.218 159.024C303.829 158.73 303.44 158.437 303.039 158.137C301.935 157.302 300.845 156.454 299.754 155.593C299.257 155.21 298.766 154.828 298.249 154.432C295.437 152.143 293.626 150.16 293.059 146.519C292.969 141.2 293.601 137.903 297.204 133.911C298.479 132.636 298.479 132.636 300.552 132.438Z" fill="#FEDCEB"/>
<path d="M269.78 227.017C270.686 228.553 271.043 229.771 271.087 231.551C271.138 234.592 271.138 234.592 272.777 237.028C273.676 237.666 274.588 238.278 275.513 238.884C277.375 240.172 278.338 241.582 279.346 243.597C279.505 245.752 279.505 245.752 279.346 247.423C279.754 247.621 280.162 247.818 280.583 248.022C281.896 248.698 281.896 248.698 282.534 249.336C282.751 250.828 282.751 250.828 282.534 252.525C279.754 255.318 276.106 257.263 272.369 258.461C270.998 258.895 270.998 258.895 269.525 259.603C265.909 261.242 262.81 262.192 258.939 260.815C257.128 259.093 256.203 257.288 255.113 255.075C254.832 255.445 254.558 255.809 254.271 256.191C251.229 259.986 251.229 259.986 248.736 260.815C246.166 259.96 245.12 258.493 243.462 256.408C242.474 255.216 241.556 254.361 240.325 253.443C237.615 251.09 236.224 248.896 235.625 245.268C236.352 240.58 238.89 237.182 242.359 234.031C244.177 232.743 246.083 231.608 247.99 230.454C250.483 228.911 252.396 227.202 254.475 225.104C259.347 223.713 265.603 224.019 269.78 227.017Z" fill="#FEDCEB"/>
<path d="M681.097 95.0133C681.269 95.6956 681.441 96.3716 681.613 97.0731C683.048 102.589 684.725 107.933 686.836 113.226C687.04 113.742 687.244 114.259 687.454 114.788C690.031 121.216 690.031 121.216 694.291 126.541C696.172 128.626 696.28 130.272 696.695 132.995C697.186 135.227 698.232 136.566 699.59 138.377C699.59 138.798 699.59 139.218 699.59 139.652C700.068 139.805 700.546 139.958 701.037 140.111C703.046 141.055 703.831 141.98 705.131 143.759C705.501 144.256 705.871 144.754 706.254 145.27C707.931 147.642 708.741 149.454 709.404 152.285C710.061 154.632 711.126 156.736 712.223 158.904C712.433 159.338 712.644 159.778 712.86 160.224C715.169 164.828 717.917 167.303 722.745 169.184C723.363 169.439 723.363 169.439 723.995 169.694C724.996 170.102 726.003 170.504 727.011 170.899C727.011 172.812 727.011 172.812 725.735 174.209C725.315 174.592 724.894 174.968 724.46 175.363C727.859 177.99 730.391 179.489 734.708 179.7C736.391 179.878 737.208 180.675 738.489 181.74C739.969 182.187 741.461 182.607 742.953 183.016C744.528 183.564 745.919 184.176 747.417 184.929C747.628 185.56 747.838 186.191 748.055 186.842C751.097 186.797 754.132 186.74 757.168 186.676C758.201 186.65 759.234 186.638 760.26 186.619C770.553 186.944 770.553 186.944 779.417 182.939C779.799 182.544 780.182 182.148 780.577 181.74C782.012 181.9 782.012 181.9 783.128 182.378C783.198 183.825 783.249 185.273 783.288 186.721C783.32 187.53 783.345 188.334 783.377 189.163C783.128 191.306 783.128 191.306 782.082 192.466C778.282 194.36 775.176 194.647 771.012 194.532C767.728 194.462 764.68 194.469 761.446 195.132C760.892 195.234 760.343 195.342 759.776 195.451C758.296 195.731 758.296 195.731 757.059 196.165C754.999 196.535 753.271 196.222 751.243 195.769C750.822 195.138 750.402 194.507 749.968 193.856C749.12 193.423 748.272 192.996 747.417 192.581C747.207 192.16 746.996 191.739 746.779 191.306C746.359 191.726 745.938 192.147 745.504 192.581C743.591 192.504 743.591 192.504 741.678 191.943C740.919 190.636 740.919 190.636 740.402 189.393C735.014 190.164 735.014 190.164 730.199 192.581C729.568 192.581 728.937 192.581 728.286 192.581C728.847 188.277 728.847 188.277 729.562 186.842C727.247 186.631 724.932 186.421 722.547 186.204C723.185 183.016 723.185 183.016 724.46 181.74C723.516 181.109 723.516 181.109 722.547 180.465C722.426 178.788 722.426 178.788 722.547 177.276C721.979 177.238 721.418 177.2 720.832 177.155C718.211 176.511 717.318 175.427 715.532 173.45C713.473 171.594 711.802 171.186 709.079 170.823C705.431 170.313 705.431 170.313 704.054 169.624C704.054 168.993 704.054 168.361 704.054 167.711C705.948 167.711 707.842 167.711 709.793 167.711C709.519 167.347 709.238 166.984 708.958 166.608C705.827 162.054 705.508 158.483 705.967 153.044C703.862 153.044 701.758 153.044 699.59 153.044C699.59 150.493 699.59 150.493 700.865 148.58C700.023 148.369 699.182 148.159 698.314 147.942C698.314 147.521 698.314 147.1 698.314 146.667C695.789 146.667 693.264 146.667 690.662 146.667C690.452 145.825 690.241 144.983 690.024 144.116C692.55 143.485 692.55 143.485 695.126 142.841C694.705 142.42 694.284 141.999 693.851 141.565C693.124 139.493 693.149 137.529 693.175 135.348C693.181 134.723 693.187 134.091 693.187 133.447C693.2 132.969 693.207 132.491 693.213 132C692.384 132.013 691.555 132.025 690.7 132.038C689.839 132.051 688.972 132.044 688.111 132C687.116 131.005 687.397 129.953 687.352 128.569C687.11 125.859 686.479 124.086 685.082 121.758C682.812 117.932 681.722 114.01 680.574 109.75C680.07 107.92 679.477 106.167 678.788 104.394C677.857 101.894 677.602 100.211 677.908 97.5641C679.349 95.0133 679.349 95.0133 681.097 95.0133Z" fill="#AC9079"/>
<path d="M722.067 191.226C722.858 191.251 723.642 191.277 724.459 191.302C724.108 193.764 722.986 194.695 721.27 196.404C720.862 197.724 720.862 197.724 720.632 198.955C718.509 199.382 716.379 199.809 714.256 200.23C713.713 200.351 713.171 200.473 712.61 200.594C711.067 200.868 711.067 200.868 708.516 200.868C707.885 201.078 707.254 201.295 706.603 201.506C705.487 201.633 704.371 201.729 703.255 201.805C702.605 201.856 701.954 201.907 701.285 201.958C699.914 202.054 698.543 202.156 697.172 202.252C696.521 202.303 695.871 202.354 695.201 202.405C694.608 202.443 694.009 202.488 693.396 202.532C691.815 202.66 691.815 202.66 690.661 204.056C689.156 204.139 689.156 204.139 687.351 204.056C685.132 204.012 683.608 204.069 681.452 204.694C679.316 205.3 677.977 205.364 675.796 205.294C670.452 205.179 665.28 206.269 660.051 207.245C659.739 208.195 659.739 208.195 659.414 209.158C657.94 208.954 656.467 208.737 654.95 208.52C654.739 209.362 654.529 210.204 654.312 211.071C650.645 210.516 650.645 210.516 649.21 209.796C648.05 209.821 646.896 209.898 645.741 210C645.123 210.051 644.511 210.095 643.873 210.153C642.055 210.344 642.055 210.344 640.283 211.709C639.785 211.696 639.281 211.683 638.771 211.671C636.667 211.722 635.653 212.519 633.906 213.622C633.274 213.622 632.643 213.622 631.993 213.622C631.782 212.786 631.572 211.945 631.355 211.071C630.915 211.02 630.481 210.963 630.028 210.905C625.322 210.172 625.322 210.172 623.62 208.323C623.052 206.569 623.02 205.255 623.065 203.419C623.498 203.349 623.932 203.272 624.378 203.196C626.349 202.864 628.313 202.526 630.277 202.188C631.304 202.009 631.304 202.009 632.35 201.831C633.332 201.665 633.332 201.665 634.339 201.493C634.939 201.391 635.545 201.282 636.169 201.18C637.808 200.893 637.808 200.893 639.645 200.23C640.723 200.154 641.807 200.103 642.891 200.077C643.528 200.058 644.173 200.039 644.836 200.013C645.512 199.994 646.194 199.975 646.896 199.956C652.437 199.752 657.8 199.42 663.24 198.317C663.731 198.228 664.222 198.132 664.726 198.03C666.384 197.711 668.042 197.38 669.7 197.042C670.229 196.94 670.758 196.831 671.3 196.723C671.798 196.621 672.295 196.512 672.812 196.404C673.475 196.27 673.475 196.27 674.157 196.13C675.547 195.773 675.547 195.773 677.269 194.491C679.125 194.242 679.125 194.242 681.408 194.115C681.822 194.089 682.237 194.064 682.664 194.038C684.029 193.955 685.393 193.885 686.752 193.815C687.695 193.764 688.639 193.707 689.583 193.656C694.296 193.388 699.015 193.184 703.733 193.043C704.569 193.018 705.411 192.992 706.278 192.967C707.879 192.922 709.473 192.884 711.073 192.852C711.794 192.839 712.508 192.82 713.254 192.801C713.879 192.788 714.504 192.776 715.155 192.763C717.725 192.482 719.408 191.137 722.067 191.226Z" fill="#AC9079"/>
<path d="M423.466 75.2447C426.278 76.8772 427.088 79.9126 427.93 82.897C428.102 85.0907 428.102 85.0907 428.089 87.3609C428.096 88.4833 428.096 88.4833 428.102 89.6311C427.93 91.8503 427.394 93.5657 426.654 95.651C426.202 98.9096 426.597 101.269 428.567 103.941C428.976 104.611 429.384 105.28 429.805 105.975C431.106 107.748 431.737 108.194 433.669 109.043C433.784 108.373 433.784 108.373 433.905 107.691C434.007 107.11 434.115 106.53 434.23 105.931C434.332 105.357 434.434 104.783 434.543 104.183C434.944 102.666 434.944 102.666 436.22 101.39C437.776 101.39 437.776 101.39 439.408 102.028C441.079 104.623 441.761 107.372 442.597 110.318C443.018 110.949 443.439 111.581 443.872 112.231C444.07 113.864 444.07 113.864 443.872 115.42C443.241 115.84 442.61 116.261 441.959 116.695C441.194 118.321 441.194 118.321 440.684 119.883C439.842 119.883 439 119.883 438.133 119.883C437.814 121.146 437.814 121.146 437.495 122.434C435.984 122.511 435.984 122.511 434.307 122.434C433.031 121.159 433.031 121.159 432.974 119.826C433.038 118.799 433.108 117.779 433.172 116.752C433.127 116.312 433.082 115.872 433.031 115.42C432.4 114.999 431.769 114.578 431.118 114.144C431.131 114.68 431.15 115.222 431.163 115.77C431.176 116.472 431.188 117.173 431.195 117.894C431.214 118.589 431.227 119.284 431.246 119.998C431.118 121.797 431.118 121.797 429.843 123.072C428.287 122.995 428.287 122.995 426.654 122.434C426.355 122.001 426.049 121.567 425.736 121.121C425.411 120.712 425.079 120.304 424.741 119.883C424.193 119.915 423.644 119.941 423.077 119.973C420.169 119.852 418.415 118.697 415.973 117.212C415.067 116.682 414.168 116.153 413.263 115.624C412.823 115.362 412.389 115.107 411.943 114.846C410.361 113.94 408.735 113.162 407.083 112.391C404.577 111.173 402.97 109.872 401.146 107.767C400.726 107.346 400.305 106.925 399.871 106.492C399.871 105.861 399.871 105.229 399.871 104.579C402.403 104.955 403.844 106.224 405.808 107.805C411.375 112.155 417.605 115.26 424.104 117.97C422.745 114.992 421.534 112.493 419.002 110.318C419.423 109.476 419.844 108.635 420.277 107.767C421.33 107.767 422.382 107.767 423.466 107.767C423.179 107.244 422.886 106.715 422.586 106.173C421.451 103.718 420.87 101.473 420.277 98.8395C419.608 98.814 418.938 98.7885 418.243 98.7629C414.997 98.0168 414.385 97.156 412.625 94.3756C412.23 91.9332 412.498 91.3784 413.9 89.274C412.427 88.8531 410.954 88.4323 409.437 87.9986C409.475 88.7511 409.475 88.7511 409.513 89.5163C409.437 91.1871 409.437 91.1871 408.161 92.4625C406.286 92.7048 406.286 92.7048 404.335 92.4625C402.779 91.117 402.473 90.1604 402.065 88.158C402.913 83.2414 407.428 79.3196 411.35 76.5201C415.15 74.607 419.321 74.6771 423.466 75.2447Z" fill="#FEDCEB"/>
<path d="M106.531 118.608C106.531 119.029 106.531 119.45 106.531 119.884C104.427 120.304 102.322 120.725 100.154 121.159C100.365 122.001 100.575 122.842 100.792 123.71C103.694 125.164 105.97 125.157 109.082 124.347C109.503 123.901 109.924 123.455 110.357 122.995C111.633 121.797 111.633 121.797 113.744 121.835C116.243 122.473 118.271 123.155 120.561 124.347C120.879 125.298 120.879 125.298 121.198 126.26C122.467 126.503 123.743 126.713 125.025 126.898C125.235 126.688 125.445 126.477 125.662 126.26C128.277 126.503 129.833 126.7 132.039 128.174C132.039 128.594 132.039 129.015 132.039 129.449C132.46 129.411 132.887 129.372 133.321 129.334C137.989 129.098 137.989 129.098 140.253 130.967C140.699 131.515 141.146 132.07 141.605 132.637C142.988 133.466 142.988 133.466 144.155 133.913C144.034 135.067 144.034 135.067 143.518 136.464C142.976 136.738 142.44 137.018 141.885 137.299C140.087 138.275 140.087 138.275 139.934 140.532C140.425 143.402 141.241 144.256 143.518 146.029C145.22 146.871 145.22 146.871 146.706 147.304C146.706 147.725 146.706 148.146 146.706 148.58C138.327 150.117 132.001 145.659 125.025 141.565C125.025 139.091 125.286 138.141 126.3 135.985C126.536 135.475 126.772 134.965 127.014 134.442C127.199 134.053 127.384 133.671 127.575 133.275C128.417 133.275 129.259 133.275 130.126 133.275C129.648 131.184 129.648 131.184 127.575 130.087C127.575 129.455 127.575 128.824 127.575 128.174C126.944 128.174 126.313 128.174 125.662 128.174C125.694 128.633 125.72 129.098 125.751 129.577C125.905 133.62 125.79 135.915 123.111 139.014C121.849 138.594 120.586 138.173 119.285 137.739C119.483 136.54 119.483 136.54 119.923 135.188C120.554 134.767 121.186 134.346 121.836 133.913C121.415 133.702 120.994 133.492 120.561 133.275C120.165 131.643 120.165 131.643 119.923 130.087C118.163 130.967 117.729 132.242 116.734 133.913C115.657 135.067 115.657 135.067 114.821 135.826C110.032 134.047 106.206 131.228 102.705 127.536C100.263 125.406 97.7757 123.544 95.0527 121.797C96.8638 127.561 103.566 131.904 108.444 135.188C110.064 135.985 111.639 136.598 113.355 137.178C116.428 138.358 119.107 140.424 121.689 142.452C124.31 144.486 126.759 145.423 129.979 146.233C131.401 146.667 131.401 146.667 133.315 147.942C134.998 148.465 136.694 148.822 138.416 149.218C138.601 151.373 138.716 153.446 138.416 155.595C136.822 156.672 136.822 156.672 135.228 157.508C135.17 158.993 135.177 160.486 135.228 161.972C134.718 163.553 134.048 164.937 133.315 166.435C133.104 166.435 132.894 166.435 132.677 166.435C132.466 163.91 132.256 161.385 132.039 158.783C130.987 158.362 129.935 157.941 128.851 157.508C127.072 155.894 125.72 154.408 124.387 152.406C121.313 151.43 118.705 150.971 115.459 151.131C115.14 151.762 115.14 151.762 114.821 152.406C113.98 151.985 113.138 151.564 112.271 151.131C112.271 150.499 112.271 149.868 112.271 149.218C114.375 149.218 116.479 149.218 118.648 149.218C118.858 147.745 119.068 146.271 119.285 144.754C118.679 144.492 118.074 144.231 117.449 143.957C115.453 142.841 114.904 142.388 114.184 140.29C113.042 140.347 113.042 140.347 111.875 140.411C108.508 140.405 106.295 139.301 103.783 137.063C102.048 135.813 101.238 135.584 99.1978 135.227C96.3409 134.697 94.9635 133.696 93.1397 131.362C92.9292 130.731 92.7188 130.099 92.502 129.449C93.3437 129.239 94.1855 129.028 95.0527 128.811C95.0527 128.18 95.0527 127.549 95.0527 126.898C93.7901 126.267 92.5275 125.636 91.2266 124.985C91.3477 122.804 91.724 121.943 93.2608 120.362C97.0105 118.085 102.284 118.608 106.531 118.608Z" fill="#FCFAFA"/>
<path d="M621.149 151.131C623.853 152.935 623.687 154.396 624.338 157.508C625.103 157.431 625.862 157.348 626.646 157.265C628.808 157.284 629.994 157.603 631.633 159.025C633.871 161.608 633.974 164.401 633.903 167.711C633.776 169.445 633.553 171.097 633.266 172.812C633.674 172.997 634.082 173.182 634.503 173.374C635.816 174.088 635.816 174.088 636.454 175.363C636.665 178.418 636.696 181.3 634.701 183.742C633.342 184.89 633.342 184.89 631.997 185.86C630.651 186.791 630.651 186.791 629.739 188.187C627.973 190.451 625.065 190.477 622.38 190.853C617.795 191.165 613.784 189.348 609.671 187.479C608.695 186.504 608.88 185.611 608.836 184.253C608.861 181.077 609.767 178.603 611.584 176.001C612.215 175.682 612.215 175.682 612.859 175.363C612.859 174.942 612.859 174.521 612.859 174.088C612.139 173.788 611.412 173.482 610.666 173.169C608.395 172.175 608.395 172.175 607.758 171.537C607.49 169.197 607.547 168.042 608.836 166.04C610.302 164.529 611.845 163.266 613.497 161.971C614.218 160.53 614.262 159.542 614.377 157.948C614.626 155.454 615.11 153.783 616.686 151.768C618.299 150.965 619.364 151.003 621.149 151.131Z" fill="#FEDCEB"/>
<path d="M392.218 78.4332C395.585 80.6524 398.391 83.2797 399.233 87.3609C399.45 89.4908 399.59 91.608 399.673 93.7443C399.864 95.6064 400.311 96.5757 401.146 98.2018C400.904 100.593 400.904 100.593 400.508 102.666C397.613 103.59 395.726 102.876 392.856 102.028C392.218 101.39 392.218 101.39 391.938 99.1583C391.823 98.4186 391.702 97.6853 391.581 96.9264C391.16 96.716 390.739 96.5055 390.305 96.2887C389.674 96.6075 389.674 96.6075 389.03 96.9264C384.266 97.156 384.266 97.156 382.015 95.651C382.666 96.6968 382.666 96.6968 383.329 97.7618C384.068 98.9543 384.068 98.9543 384.566 100.115C384.355 100.746 384.145 101.378 383.928 102.028C381.671 101.818 380.395 101.633 378.629 100.153C376.576 98.5844 374.949 98.2911 372.443 97.8766C371.174 97.5641 371.174 97.5641 369.899 96.2887C369.019 91.8822 368.502 86.685 370.753 82.6356C376.097 75.4551 384.164 74.6006 392.218 78.4332Z" fill="#FEDCEB"/>
<path d="M297.958 202.545C300.873 202.832 302.32 203.852 304.214 205.976C305.075 207.245 305.923 208.52 306.765 209.802C309.762 212.716 312.179 212.959 316.254 213.029C316.911 213.016 317.567 213.003 318.243 212.991C318.243 213.411 318.243 213.826 318.243 214.266C318.9 214.253 318.9 214.253 319.57 214.24C320.15 214.234 320.724 214.228 321.311 214.221C321.885 214.215 322.452 214.209 323.039 214.202C324.62 214.266 324.62 214.266 326.533 214.904C326.202 216.664 325.826 218.296 325.258 220.005C320.954 220.719 320.954 220.719 319.519 220.005C319.519 219.578 319.519 219.163 319.519 218.73C319.187 218.947 318.856 219.163 318.518 219.387C316.42 220.222 314.864 219.935 312.625 219.686C309.188 219.38 306.86 219.527 303.576 220.643C295.12 222.148 295.12 222.148 293.373 221.281C293.373 220.643 293.373 220.012 293.373 219.367C292.774 219.323 292.174 219.285 291.556 219.246C290.765 219.195 289.968 219.138 289.152 219.087C288.367 219.036 287.583 218.985 286.773 218.927C284.445 218.73 284.445 218.73 282.347 218.366C280.485 218.067 279.248 218.296 277.431 218.73C276.589 218.73 275.747 218.73 274.88 218.73C274.153 218.921 274.153 218.921 273.407 219.125C271.098 219.45 269.434 218.8 267.228 218.092C265.621 217.741 264.045 217.454 262.407 217.25C260.851 216.817 260.851 216.817 259.658 215.541C257.286 213.309 254.403 213.628 251.285 213.628C252.484 209.955 252.484 209.955 253.198 208.527C256.399 208.814 259.467 209.228 262.585 210.025C270.588 212.066 278.757 212.691 286.958 213.418C288.284 213.558 289.604 213.743 290.918 213.966C293.207 214.342 295.452 214.33 297.761 214.304C298.417 214.298 298.417 214.298 299.087 214.291C300.158 214.285 301.23 214.272 302.301 214.266C302.065 213.003 302.065 213.003 301.663 211.715C300.821 211.275 299.967 210.854 299.112 210.44C295.427 207.487 295.427 207.487 295.012 204.815C295.446 202.628 295.637 202.819 297.958 202.545Z" fill="#AC9079"/>
<path d="M591.181 142.841C593.336 144.837 594.325 146.469 594.49 149.415C593.036 153.924 590.518 158.439 586.717 161.334C584.612 161.71 582.585 161.634 580.461 161.532C579.894 161.519 579.332 161.506 578.752 161.487C577.368 161.455 575.984 161.398 574.601 161.334C574.18 160.492 573.759 159.65 573.325 158.783C573.746 158.152 574.167 157.52 574.601 156.87C573.81 157.004 573.019 157.131 572.209 157.265C570.06 157.546 568.778 157.527 566.948 156.232C566.738 157.074 566.527 157.916 566.311 158.783C564.417 158.783 562.523 158.783 560.571 158.783C560.055 157.387 560.055 157.387 559.934 155.595C561.324 153.886 562.504 152.687 564.519 151.768C566.17 150.856 566.272 149.683 566.948 147.942C569.384 144.626 571.808 142.082 575.953 141.087C587.361 140.354 587.361 140.354 591.181 142.841Z" fill="#FEDCEB"/>
<path d="M236.856 257.307C237.564 257.295 237.564 257.295 238.291 257.275C241.613 257.301 243.565 257.977 246.179 260.177C246.581 261.529 246.581 261.529 246.817 262.728C247.365 262.989 247.365 262.989 247.914 263.257C253.347 266.05 258.238 272.548 260.846 278.032C259.284 280.386 258.436 280.532 255.745 281.221C250.318 281.763 243.284 281.744 238.642 278.492C237.774 277.637 237.774 277.637 236.614 276.119C236.41 275.909 236.193 275.698 235.976 275.482C235.931 274.302 235.925 273.116 235.938 271.936C235.944 271.292 235.95 270.642 235.957 269.978C235.963 269.481 235.97 268.984 235.976 268.467C233.872 268.467 231.767 268.467 229.599 268.467C228.394 266.044 228.145 265.534 228.407 263.047C228.445 262.568 228.489 262.084 228.534 261.593C229.829 257.346 232.921 257.224 236.856 257.307Z" fill="#FEDCEB"/>
<path d="M559.295 159.421C557.739 162.074 556.145 162.545 553.237 163.323C550.877 163.968 549.226 164.433 547.179 165.798C548.62 168.081 549.883 168.865 552.402 169.783C553.262 170.102 553.262 170.102 554.142 170.434C554.582 170.587 555.016 170.74 555.469 170.899C555.781 174.91 555.781 174.91 554.315 177.034C553.855 177.538 553.39 178.035 552.918 178.552C552.618 179.119 552.312 179.68 552 180.267C550.718 182.167 550.055 182.493 547.816 183.016C543.231 183.532 540.26 182.773 536.338 180.465C535.413 180.006 534.482 179.553 533.545 179.113C532.021 178.373 531.179 177.857 529.961 176.639C530.127 172.927 531.81 170.536 534.182 167.787C535.063 167.073 535.063 167.073 536.338 167.073C536.402 166.69 536.472 166.308 536.536 165.919C537.033 164.344 537.658 163.681 538.889 162.609C539.246 162.832 539.597 163.056 539.966 163.285C541.899 164.07 542.638 163.878 544.628 163.247C545.387 162.858 546.146 162.456 546.898 162.048C550.476 160.186 555.354 158.107 559.295 159.421Z" fill="#FEDCEB"/>
<path d="M401.784 305.453C402.836 305.453 403.888 305.453 404.972 305.453C404.947 305.849 404.915 306.238 404.889 306.646C404.896 309.452 405.113 311.218 406.917 313.444C411.037 317.193 414.984 319.668 420.277 321.396C421.355 322.008 422.426 322.633 423.466 323.309C422.904 326.421 422.904 326.421 422.19 327.135C420.704 327.161 419.212 327.161 417.726 327.135C417.407 324.922 417.407 324.922 417.089 322.671C414.831 322.894 414.831 322.894 413.135 324.24C411.388 325.732 409.411 325.828 407.204 326.102C406.771 326.166 406.343 326.236 405.897 326.306C404.634 326.472 404.634 326.472 402.421 326.497C401.267 325.579 401.267 325.579 400.508 324.584C399.966 324.508 399.431 324.425 398.876 324.342C398.359 324.214 397.849 324.081 397.32 323.947C396.561 322.474 396.561 322.474 396.045 320.758C395.789 320.363 395.534 319.967 395.273 319.559C394.769 318.207 394.769 318.207 395.369 316.785C395.713 316.281 396.051 315.778 396.402 315.261C398.449 312.092 400.151 308.846 401.784 305.453Z" fill="#FEFDFD"/>
<path d="M437.814 153.442C438.637 153.423 439.459 153.404 440.307 153.385C442.947 153.729 443.923 154.373 445.785 156.236C447.137 158.104 447.137 158.104 448.336 160.062C448.719 160.61 449.101 161.165 449.49 161.732C450.249 163.25 450.249 163.25 450.249 164.602C449.242 166.49 448.425 166.911 446.423 167.714C442.208 168.326 438.171 167.587 434.064 166.636C433.637 166.541 433.203 166.445 432.757 166.349C429.702 165.571 428.006 164.398 426.017 161.975C425.5 160.176 425.5 160.176 425.379 158.786C426.048 158.168 426.731 157.556 427.413 156.95C427.789 156.612 428.166 156.267 428.555 155.917C431.501 153.717 434.186 153.481 437.814 153.442Z" fill="#FEDCEB"/>
<path d="M521.035 129.449C522.706 130.603 522.706 130.603 524.223 132C524.88 132.331 525.537 132.657 526.213 132.995C529.083 134.429 529.083 134.429 529.963 135.826C529.841 138.6 529.108 140.641 527.412 142.841C526.015 143.357 526.015 143.357 524.861 143.478C524.81 143.976 524.759 144.479 524.702 144.996C524.223 146.667 524.223 146.667 523.19 147.502C521.162 148.089 519.3 148.025 517.209 147.942C516.813 146.424 516.813 146.424 516.571 144.754C516.992 144.333 517.413 143.912 517.846 143.478C516.475 141.425 516.188 141.272 513.982 140.57C512.605 140.13 512.605 140.13 511.469 139.652C510.481 137.675 510.647 136.094 510.832 133.913C513.331 129.895 516.335 128.665 521.035 129.449Z" fill="#FEDCEB"/>
<path d="M95.0508 121.797C99.6868 123.933 103.666 127.16 107.205 130.801C109.214 132.746 111.892 135.188 114.819 135.188C116.656 133.734 117.727 132.229 118.646 130.087C119.066 130.087 119.487 130.087 119.921 130.087C120.24 131.668 120.24 131.668 120.559 133.275C121.19 133.486 121.821 133.696 122.472 133.913C122.261 134.334 122.051 134.755 121.834 135.188C121.203 135.188 120.571 135.188 119.921 135.188C119.921 136.03 119.921 136.872 119.921 137.739C120.973 137.949 122.025 138.16 123.109 138.377C125.545 135.309 125.469 131.93 125.66 128.174C126.292 128.174 126.923 128.174 127.573 128.174C127.892 129.124 127.892 129.124 128.211 130.087C128.842 130.508 129.474 130.928 130.124 131.362C130.124 131.993 130.124 132.625 130.124 133.275C129.282 133.275 128.441 133.275 127.573 133.275C127.388 134.066 127.203 134.857 127.012 135.667C126.566 137.58 125.954 139.193 125.023 140.928C126.075 141.438 126.075 141.438 127.14 141.954C128.071 142.407 128.995 142.866 129.926 143.319C130.615 143.65 130.615 143.65 131.317 143.988C133.944 145.283 136.195 146.635 138.414 148.58C135.851 149.434 134.575 148.803 132.037 147.942C130.762 147.304 129.486 146.667 128.211 146.029C127.529 145.882 126.846 145.742 126.139 145.589C123.199 144.562 121.4 142.93 119.041 140.947C115.942 138.543 112.466 136.999 108.8 135.667C103.985 133.301 100.057 129.43 96.3262 125.623C95.9053 125.202 95.4844 124.781 95.0508 124.347C95.0508 123.506 95.0508 122.664 95.0508 121.797Z" fill="#AC9079"/>
<path d="M460.095 90.8284C461.728 91.8232 461.728 91.8232 463.003 93.0986C463.131 94.8969 463.131 94.8969 463.086 97.0077C463.073 97.7028 463.06 98.4042 463.048 99.1248C463.035 99.6605 463.022 100.196 463.003 100.751C461.951 100.993 460.886 101.21 459.815 101.389C459.604 101.178 459.394 100.968 459.177 100.751C457.882 100.611 456.594 100.464 455.293 100.356C454.075 100.113 454.075 100.113 452.8 98.8379C451.097 98.6848 451.097 98.6848 449.216 98.7613C448.572 98.7741 447.934 98.7805 447.277 98.7932C446.538 98.8187 446.538 98.8187 445.785 98.8379C445.147 96.9248 445.147 96.9248 445.556 95.6876C448.833 89.2533 453.463 88.0544 460.095 90.8284Z" fill="#FEDCEB"/>
<path d="M663.878 68.8677C666.582 69.7669 667.283 71.731 668.622 74.0905C669.113 74.9386 669.604 75.7804 670.095 76.6285C670.331 77.0366 670.567 77.4511 670.816 77.8784C671.486 79.0007 672.225 80.0848 672.971 81.1689C674.081 82.8971 674.081 82.8971 674.362 84.9696C674.476 85.5499 674.598 86.1238 674.719 86.7233C676.288 87.6479 676.288 87.6479 677.907 87.9987C677.882 87.3036 677.856 86.6021 677.831 85.8879C677.907 83.5348 677.907 83.5348 679.183 81.6217C679.814 81.6217 680.445 81.6217 681.096 81.6217C681.16 82.3168 681.23 83.0182 681.293 83.7325C681.753 86.194 681.982 86.4044 683.647 87.9987C683.889 89.6312 683.889 89.6312 683.647 91.1871C681.293 92.7559 679.374 93.1066 676.632 93.7379C676.632 94.1588 676.632 94.5797 676.632 95.0133C676.001 95.0133 675.369 95.0133 674.719 95.0133C673.354 92.9727 673.297 92.4498 673.367 90.1094C673.373 89.5929 673.386 89.0827 673.399 88.5471C673.412 88.1581 673.431 87.7627 673.443 87.361C672.812 87.1505 672.181 86.9401 671.53 86.7233C670.293 84.925 669.177 83.0948 668.074 81.2199C666.365 78.4204 664.586 76.5903 661.965 74.607C662.411 72.5983 663.087 70.7617 663.878 68.8677Z" fill="#AC9079"/>
<path d="M663.239 187.479C665.235 188.283 665.682 188.876 667.065 190.668C667.595 192.466 667.671 193.863 667.703 195.769C666.211 197.262 662.48 196.516 660.497 196.528C660.064 196.528 659.63 196.528 659.184 196.528C657.864 196.528 656.55 196.541 655.23 196.547C654.401 196.554 653.572 196.554 652.717 196.554C651.958 196.554 651.193 196.56 650.402 196.56C648.572 196.407 648.572 196.407 647.297 195.132C647.361 193.563 647.361 193.563 647.935 191.943C649.184 190.98 649.184 190.98 650.728 190.228C651.231 189.979 651.735 189.724 652.252 189.463C652.724 189.233 653.189 188.997 653.674 188.755C656.665 186.759 659.738 187.039 663.239 187.479Z" fill="#AC9079"/>
<path d="M604.853 185.208C606.485 186.202 606.485 186.202 607.123 186.84C607.187 187.797 607.206 188.753 607.206 189.71C607.206 190.488 607.206 190.488 607.212 191.285C607.123 192.579 607.123 192.579 606.485 193.217C604.674 193.428 602.863 193.549 601.046 193.676C599.509 193.689 599.509 193.689 598.833 194.492C596.25 194.767 593.878 194.818 591.461 193.817C590.039 191.903 590.256 190.424 590.543 188.115C593.91 183.926 600.146 183.237 604.853 185.208Z" fill="#FEDCEB"/>
<path d="M221.313 201.509C223.992 201.292 225.765 201.337 228.009 202.784C230.273 204.232 232.014 204.321 234.705 204.059C235.126 203.849 235.547 203.639 235.981 203.422C242.071 202.841 246.611 203.575 251.923 206.61C251.923 207.452 251.923 208.294 251.923 209.161C249.021 209.257 246.12 209.327 243.212 209.372C242.224 209.391 241.242 209.416 240.253 209.448C231.013 209.754 231.013 209.754 227.831 207.325C227.136 206.674 226.453 206.011 225.777 205.335C224.247 204.417 224.247 204.417 222.908 203.817C222.174 203.479 221.435 203.135 220.676 202.784C220.886 202.363 221.097 201.942 221.313 201.509Z" fill="#AC9079"/>
<path d="M110.991 87.361C113.338 87.7627 113.338 87.7627 114.384 88.968C116.144 90.5176 118.12 90.1796 120.378 90.2306C121.832 90.5494 121.832 90.5494 122.68 91.7164C123.26 93.604 122.903 95.0261 122.47 96.9264C121.838 97.1369 121.207 97.3473 120.556 97.5641C119.829 99.2987 119.829 99.2987 119.281 101.352C118.216 105.076 118.216 105.076 116.093 106.492C114.224 102.226 113.414 97.7235 112.623 93.164C112.349 91.6973 112.349 91.6973 110.991 90.5494C110.914 88.8787 110.914 88.8787 110.991 87.361Z" fill="#FEFCFD"/>
<path d="M79.1074 130.724C81.3139 131.356 82.9719 132.025 84.885 133.313C86.6833 134.5 87.8375 134.94 89.9483 135.188C89.9483 135.82 89.9483 136.451 89.9483 137.101C91.8422 137.733 93.7362 138.364 95.6876 139.014C95.2667 140.908 94.8458 142.802 94.4122 144.754C90.2799 144.99 90.2799 144.99 88.7111 143.874C88.0352 142.841 88.0352 142.841 88.0352 141.565C87.474 141.412 86.9128 141.253 86.3389 141.093C84.0687 140.239 82.6339 139.212 80.7782 137.663C80.2234 137.197 79.6686 136.738 79.0947 136.26C78.4697 135.73 78.4697 135.73 77.832 135.188C78.2529 133.715 78.6738 132.242 79.1074 130.724Z" fill="#FEFCFD"/>
<path d="M315.694 172.812C316.154 173.884 316.154 173.884 316.332 175.363C315.433 176.945 315.433 176.945 314.1 178.673C313.392 179.591 313.392 179.591 312.678 180.535C312.2 181.141 311.722 181.753 311.231 182.378C310.822 182.92 310.408 183.462 309.987 184.023C308.539 185.917 307.149 187.741 305.44 189.405C304.292 190.591 303.655 191.554 302.94 193.021C301.665 195.132 301.665 195.132 300.23 195.731C299.86 195.744 299.497 195.757 299.114 195.769C298.674 194.373 298.674 194.373 298.477 192.581C299.312 190.987 299.312 190.987 300.39 189.393C300.543 188.908 300.696 188.423 300.855 187.926C301.946 185.611 303.636 184.189 305.529 182.537C306.282 181.868 307.028 181.198 307.774 180.522C308.144 180.197 308.508 179.865 308.89 179.521C311.243 177.378 313.469 175.089 315.694 172.812Z" fill="#AC9079"/>
<path d="M124.382 109.68C126.34 109.725 127.737 109.929 129.267 111.198C131.569 113.73 132.628 115.911 133.31 119.246C134.362 119.456 135.415 119.667 136.499 119.884C136.084 122.109 135.159 123.729 133.948 125.623C133.24 125.023 132.539 124.43 131.837 123.831C131.442 123.499 131.053 123.161 130.645 122.823C128.534 120.961 127.303 119.565 126.219 116.937C125.524 115.075 125.524 115.075 124.382 113.507C124.357 112.231 124.357 110.956 124.382 109.68Z" fill="#FEFCFD"/>
<path d="M209.84 143.478C210.988 144.039 212.129 144.613 213.271 145.194C214.221 145.672 214.221 145.672 215.197 146.157C217.103 147.477 217.435 148.331 218.13 150.493C218.564 150.901 218.997 151.309 219.444 151.73C221.044 153.433 221.223 154.561 221.318 156.87C220.719 158.388 220.719 158.388 220.043 159.421C218.57 159.618 218.57 159.618 216.855 159.421C215.821 158.024 215.821 158.024 214.941 156.232C214.597 155.748 214.259 155.257 213.908 154.759C213.054 153.088 212.894 152.227 212.748 150.416C212.665 147.929 212.665 147.929 211.077 146.826C210.669 146.565 210.261 146.303 209.84 146.029C209.84 145.187 209.84 144.346 209.84 143.478Z" fill="#FEFCFD"/>
<path d="M663.878 68.8677C666.601 69.7733 667.315 71.7948 668.661 74.167C669.158 75.0279 669.655 75.8888 670.153 76.7497C670.51 77.3619 670.51 77.3619 670.867 77.9868C671.556 79.1602 671.556 79.1602 672.659 80.4802C674.024 82.4698 673.558 84.3765 673.443 86.7233C672.812 86.7233 672.181 86.7233 671.53 86.7233C670.268 84.9441 669.171 83.133 668.074 81.2518C666.365 78.4332 664.599 76.5966 661.965 74.607C662.411 72.5983 663.087 70.7617 663.878 68.8677Z" fill="#AC9079"/>
<path d="M459.812 103.303C463.14 108.953 463.14 108.953 462.56 111.989C462.146 112.741 462.146 112.741 461.725 113.506C457.694 113.819 457.694 113.819 455.705 112.391C454.71 110.956 454.71 110.956 454.71 108.405C454.079 108.405 453.447 108.405 452.797 108.405C454.327 104.827 455.851 103.118 459.812 103.303Z" fill="#FEDCEB"/>
<path d="M311.228 289.511C312.503 290.149 313.778 290.786 315.054 291.424C315.379 295.282 314.652 298.362 312.503 301.627C310.513 302.826 310.513 302.826 308.677 303.54C308.256 304.172 307.835 304.803 307.401 305.453C306.77 305.243 306.139 305.032 305.488 304.816C305.909 304.459 306.33 304.108 306.764 303.738C308.307 301.959 308.096 301.34 308.039 299.076C308.996 297.999 308.996 297.999 309.952 297.163C309.952 296.742 309.952 296.322 309.952 295.888C309.531 295.677 309.11 295.467 308.677 295.25C308.281 293.299 308.281 293.299 308.039 291.424C309.091 291.424 310.143 291.424 311.228 291.424C311.228 290.793 311.228 290.161 311.228 289.511Z" fill="#FEFAFC"/>
<path d="M399.871 104.579C402.403 104.955 403.844 106.224 405.808 107.806C411.375 112.155 417.605 115.26 424.104 117.97C424.104 118.602 424.104 119.233 424.104 119.884C420.66 119.584 418.199 118.653 415.297 116.854C414.513 116.389 413.735 115.923 412.957 115.458C412.383 115.12 412.383 115.12 411.802 114.769C410.297 113.908 408.741 113.169 407.166 112.429C404.622 111.192 402.989 109.904 401.146 107.767C400.726 107.346 400.305 106.926 399.871 106.492C399.871 105.861 399.871 105.229 399.871 104.579Z" fill="#AC9079"/>
<path d="M77.1963 147.305C82.4573 147.515 87.7183 147.725 93.1387 147.942C93.3492 148.784 93.5596 149.626 93.7764 150.493C92.8581 151.928 92.8581 151.928 91.8633 153.044C91.334 152.948 90.8048 152.859 90.2563 152.763C87.0551 152.247 83.8347 151.89 80.6143 151.513C78.4717 151.131 78.4717 151.131 76.5586 149.855C76.769 149.014 76.9795 148.172 77.1963 147.305Z" fill="#FEFCFD"/>
<path d="M533.56 154.05C535.065 154.318 535.065 154.318 536.774 155.396C537.616 156.869 537.616 156.869 537.533 158.584C536.978 160.057 536.978 160.057 535.703 160.695C534.185 160.74 532.674 160.752 531.156 160.733C530.34 160.733 529.524 160.727 528.682 160.72C527.738 160.708 527.738 160.708 526.775 160.695C526.029 157.73 526.029 157.73 526.973 155.715C529.218 153.884 530.729 153.897 533.56 154.05Z" fill="#FEDCEB"/>
<path d="M301.027 308.642C301.659 308.642 302.29 308.642 302.94 308.642C302.787 309.19 302.787 309.19 302.634 309.752C302.316 311.135 302.175 312.398 302.099 313.814C302.073 314.292 302.048 314.777 302.022 315.268C301.984 316.014 301.984 316.014 301.946 316.773C301.914 317.276 301.888 317.786 301.863 318.303C301.793 319.547 301.729 320.79 301.665 322.034C298.566 321.581 296.2 320.784 293.375 319.483C293.605 319.183 293.841 318.877 294.076 318.571C296.257 315.701 298.253 312.787 300.141 309.72C300.434 309.363 300.728 309.005 301.027 308.642Z" fill="#FEFBFD"/>
<path d="M95.0508 121.797C99.6868 123.933 103.666 127.16 107.205 130.801C108.749 132.299 110.458 133.396 112.269 134.551C112.058 135.182 111.848 135.813 111.631 136.464C108.264 135.686 106.115 134.002 103.494 131.872C102.238 130.865 100.969 129.953 99.6358 129.054C97.6972 127.606 96.3517 126.382 95.0508 124.347C95.0508 123.506 95.0508 122.664 95.0508 121.797Z" fill="#AC9079"/>
<path d="M244.268 167.711C246.143 168.227 246.143 168.227 248.094 168.986C248.304 169.618 248.515 170.249 248.732 170.899C250.077 171.416 250.077 171.416 251.64 171.658C252.169 171.76 252.698 171.856 253.24 171.964C253.846 172.066 253.846 172.066 254.471 172.175C254.592 173.692 254.592 173.692 254.471 175.363C253.84 175.784 253.208 176.205 252.558 176.639C252.558 175.797 252.558 174.955 252.558 174.088C251.55 174.381 251.55 174.381 250.524 174.687C245.231 176.16 245.231 176.16 243.63 175.363C243.611 174.33 243.598 173.291 243.592 172.251C243.586 171.677 243.573 171.103 243.566 170.504C243.63 168.986 243.63 168.986 244.268 167.711Z" fill="#FEFAFC"/>
<path d="M516.567 161.972C516.631 165.893 516.631 165.893 516.567 167.073C515.585 168.055 514.667 167.864 513.302 167.908C510.108 167.896 508.335 166.939 505.727 165.16C505.727 164.318 505.727 163.476 505.727 162.609C509.368 161.978 512.875 161.908 516.567 161.972Z" fill="#AC9079"/>
<path d="M602.58 73.3715C604.614 74.2706 605.29 75.9669 606.482 77.7971C607.828 78.6835 607.828 78.6835 609.033 79.0725C609.033 79.7038 609.033 80.3351 609.033 80.9856C608.498 81.0174 607.962 81.0493 607.407 81.0812C606.706 81.1259 606.011 81.1769 605.29 81.2215C604.244 81.2917 604.244 81.2917 603.186 81.3554C601.298 81.4511 601.298 81.4511 600.105 82.8987C599.27 82.8987 598.422 82.8987 597.555 82.8987C597.555 82.2673 597.555 81.636 597.555 80.9856C597.982 80.9856 598.396 80.9856 598.83 80.9856C599.015 80.5073 599.2 80.0354 599.391 79.5507C599.997 78.0713 600.648 76.662 601.381 75.2463C600.96 75.2463 600.545 75.2463 600.105 75.2463C600.105 74.8254 600.105 74.4045 600.105 73.9709C601.381 73.3332 601.381 73.3332 602.58 73.3715Z" fill="#FEFCFD"/>
<path d="M327.143 222.48C327.672 222.487 328.208 222.487 328.75 222.493C329.324 222.493 329.898 222.493 330.491 222.5C331.396 222.506 331.396 222.506 332.315 222.512C332.92 222.519 333.526 222.519 334.151 222.519C335.65 222.531 337.155 222.538 338.653 222.551C338.29 224.419 338.181 224.967 336.677 226.23C334.317 227.231 332.697 227.078 330.166 226.817C329.362 226.74 328.565 226.664 327.742 226.587C326.83 226.485 326.83 226.485 325.899 226.377C325.657 225.325 325.447 224.26 325.262 223.188C325.899 222.551 325.899 222.551 327.143 222.48Z" fill="#AC9079"/>
<path d="M56.791 114.144C60.3239 113.959 62.6897 113.985 65.7188 116.057C66.28 117.454 66.28 117.454 66.3565 118.608C62.8173 120.451 60.7001 120.878 56.791 119.884C55.8345 118.57 55.8345 118.57 55.5156 117.333C56.1469 117.122 56.7783 116.912 57.4287 116.695C57.2183 115.853 57.0078 115.012 56.791 114.144Z" fill="#FEFAFC"/>
<path d="M210.475 184.291C211.106 184.291 211.737 184.291 212.388 184.291C213.402 186.95 213.854 189.099 213.663 191.943C213.453 192.364 213.242 192.785 213.025 193.219C214.078 193.219 215.13 193.219 216.214 193.219C215.793 194.06 215.372 194.902 214.938 195.769C211.909 195.208 211.909 195.208 210.475 194.494C210.691 193.467 210.691 193.467 210.915 192.422C211.138 189.711 210.832 189.45 209.199 187.479C209.359 186.096 209.48 185.286 210.475 184.291Z" fill="#FEF7FA"/>
<path d="M518.481 164.522C520.375 164.841 520.375 164.841 522.307 165.16C522.447 166.059 522.581 166.965 522.702 167.87C522.779 168.374 522.855 168.878 522.932 169.394C522.945 171.103 522.543 172.002 521.669 173.45C520.062 173.227 519.195 172.876 517.92 171.856C516.785 169.324 517.716 167.099 518.481 164.522Z" fill="#AC9079"/>
<path d="M559.293 159.421C557.354 162.654 554.67 163.056 551.207 164.044C548.675 164.618 546.565 164.726 543.988 164.522C546.756 161.449 549.696 160.632 553.63 159.618C554.293 159.446 554.95 159.274 555.633 159.095C557.38 158.783 557.38 158.783 559.293 159.421Z" fill="#AC9079"/>
<path d="M133.312 186.842C134.894 187.161 134.894 187.161 136.501 187.479C136.711 188.111 136.922 188.742 137.139 189.392C138.612 189.603 140.085 189.813 141.603 190.03C141.182 191.503 140.761 192.976 140.327 194.494C137.776 194.494 137.776 194.494 136.106 193.18C134.333 190.993 133.899 189.552 133.312 186.842Z" fill="#FEF8FB"/>
<path d="M677.27 66.9546C677.901 67.1651 678.532 67.3755 679.183 67.5923C680.369 70.6086 680.624 73.9438 680.458 77.1578C679.827 77.1578 679.195 77.1578 678.545 77.1578C678.386 76.5392 678.232 75.9206 678.067 75.2829C677.805 74.6389 677.537 73.9948 677.27 73.3316C675.975 72.713 675.975 72.713 674.719 72.6939C675.114 69.1611 675.114 69.1611 676.351 67.6688C676.657 67.4329 676.957 67.1969 677.27 66.9546Z" fill="#AC9079"/>
<path d="M634.547 189.393C634.585 189.788 634.623 190.183 634.668 190.591C635.076 192.122 635.076 192.122 636.817 192.74C637.334 192.9 637.844 193.059 638.373 193.219C638.163 193.85 637.952 194.481 637.735 195.132C635.21 194.921 632.685 194.711 630.083 194.494C629.873 193.652 629.662 192.811 629.445 191.943C631.148 189.667 631.613 189.393 634.547 189.393Z" fill="#AC9079"/>
<path d="M521.031 151.768C521.663 151.768 522.294 151.768 522.944 151.768C523.678 154.377 523.652 156.889 523.62 159.58C523.62 160.058 523.614 160.53 523.614 161.021C523.608 162.188 523.595 163.355 523.582 164.522C522.74 164.312 521.899 164.101 521.031 163.885C521.031 159.886 521.031 155.888 521.031 151.768Z" fill="#AC9079"/>
<path d="M118.647 130.087C119.067 130.087 119.488 130.087 119.922 130.087C120.132 131.139 120.343 132.191 120.56 133.275C121.191 133.486 121.822 133.696 122.473 133.913C122.262 134.334 122.052 134.755 121.835 135.188C121.204 135.188 120.572 135.188 119.922 135.188C119.711 135.609 119.501 136.03 119.284 136.464C118.863 136.464 118.442 136.464 118.009 136.464C117.154 136.661 116.306 136.878 115.458 137.101C115.668 137.522 115.879 137.943 116.096 138.377C114.833 137.956 113.57 137.535 112.27 137.101C112.27 136.47 112.27 135.839 112.27 135.188C112.754 135.124 113.245 135.054 113.743 134.991C115.624 134.506 116.204 134.142 117.371 132.637C118.124 131.298 118.124 131.298 118.647 130.087Z" fill="#AC9079"/>
<path d="M426.016 255.713C428.006 255.955 428.006 255.955 429.843 256.351C429.485 258.41 428.994 259.552 427.292 260.815C426.45 260.815 425.608 260.815 424.741 260.815C424.664 258.978 424.664 258.978 424.741 256.988C425.162 256.568 425.583 256.147 426.016 255.713Z" fill="#FEFBFC"/>
<path d="M260.215 279.946C264.003 279.946 267.791 279.946 271.693 279.946C271.693 280.366 271.693 280.787 271.693 281.221C269.525 281.871 267.497 281.986 265.24 282.018C264.564 282.037 263.894 282.05 263.199 282.069C262.638 281.999 262.071 281.929 261.49 281.859C261.069 281.227 260.648 280.596 260.215 279.946Z" fill="#AC9079"/>
<path d="M263.402 262.728C264.033 262.728 264.664 262.728 265.315 262.728C266.845 265.693 266.718 268.41 266.59 271.655C266.169 271.655 265.749 271.655 265.315 271.655C263.121 265.655 263.121 265.655 263.402 262.728Z" fill="#AC9079"/>
<path d="M300.39 189.393C301.021 189.393 301.652 189.393 302.303 189.393C302.43 193.251 302.43 193.251 302.303 194.494C301.882 194.915 301.461 195.336 301.027 195.769C299.675 195.527 299.675 195.527 298.477 195.132C298.834 193.002 299.337 191.286 300.39 189.393Z" fill="#AC9079"/>
<path d="M149.891 117.333C152.403 117.69 154.221 118.366 156.268 119.883C156.268 120.515 156.268 121.146 156.268 121.797C153.934 122.007 152.824 122.09 150.924 120.642C149.891 119.246 149.891 119.246 149.891 117.333Z" fill="#FEF9FB"/>
<path d="M405.609 277.395C405.189 278.447 404.768 279.499 404.334 280.583C401.146 279.946 401.146 279.946 397.957 279.308C397.957 278.887 397.957 278.466 397.957 278.032C400.533 277.631 403.001 277.318 405.609 277.395Z" fill="#FEF9FB"/>
<path d="M582.251 206.61C580.198 209.078 578.329 209.722 575.236 210.437C575.236 210.016 575.236 209.595 575.236 209.161C574.815 208.951 574.395 208.74 573.961 208.523C579.337 206.336 579.337 206.336 582.251 206.61Z" fill="#AC9079"/>
<path d="M192.616 204.697C191.417 207.172 191.417 207.172 190.703 207.886C187.177 208.039 187.177 208.039 185.602 207.248C185.602 206.827 185.602 206.406 185.602 205.973C186.533 205.756 187.464 205.545 188.395 205.335C189.166 205.156 189.166 205.156 189.963 204.978C191.341 204.697 191.341 204.697 192.616 204.697Z" fill="#FEF8FB"/>
<path d="M197.719 179.189C198.14 179.189 198.561 179.189 198.994 179.189C198.994 179.61 198.994 180.031 198.994 180.465C199.39 180.611 199.785 180.752 200.193 180.905C201.934 181.982 202.215 183.009 202.82 184.929C200.818 184.712 200.25 184.272 198.835 182.773C197.719 181.102 197.719 181.102 197.719 179.189Z" fill="#FEF7FA"/>
<path d="M548.612 161.812C549.479 161.889 549.479 161.889 550.365 161.972C550.365 162.392 550.365 162.813 550.365 163.247C549.944 163.247 549.523 163.247 549.09 163.247C549.09 163.668 549.09 164.089 549.09 164.522C547.406 164.522 545.723 164.522 543.988 164.522C545.525 162.628 546.125 162.003 548.612 161.812Z" fill="#AC9079"/>
<path d="M118.009 134.551C118.009 135.182 118.009 135.813 118.009 136.464C117.167 136.674 116.325 136.885 115.458 137.101C115.668 137.522 115.879 137.943 116.096 138.377C114.833 137.956 113.57 137.535 112.27 137.101C112.27 136.47 112.27 135.839 112.27 135.188C115.107 134.869 115.107 134.869 118.009 134.551Z" fill="#AC9079"/>
<path d="M75.2812 139.014C76.4801 139.174 76.4801 139.174 77.832 139.652C78.6292 140.966 78.6292 140.966 79.1074 142.203C77.8448 142.413 76.5822 142.624 75.2812 142.841C75.2812 141.578 75.2812 140.315 75.2812 139.014Z" fill="#FEF6F9"/>
<path d="M125.658 130.724C125.869 131.566 126.079 132.408 126.296 133.275C126.717 133.275 127.138 133.275 127.571 133.275C127.15 134.959 126.73 136.642 126.296 138.377C126.085 137.956 125.875 137.535 125.658 137.101C125.237 137.101 124.816 137.101 124.383 137.101C124.804 134.997 125.225 132.893 125.658 130.724Z" fill="#AC9079"/>
<path d="M558.654 190.03C558.865 190.662 559.075 191.293 559.292 191.943C560.344 191.943 561.396 191.943 562.48 191.943C562.48 192.154 562.48 192.364 562.48 192.581C561.9 192.766 561.32 192.951 560.727 193.142C558.724 193.774 558.724 193.774 557.219 194.615C556.85 194.787 556.486 194.953 556.104 195.132C555.683 194.921 555.262 194.711 554.828 194.494C554.828 194.073 554.828 193.652 554.828 193.219C555.88 193.008 556.933 192.798 558.017 192.581C558.227 191.739 558.437 190.898 558.654 190.03Z" fill="#AC9079"/>
<path d="M133.952 146.029C135.814 146.711 137 147.164 138.416 148.58C135.904 149.415 134.513 148.733 132.039 147.942C132.67 147.732 133.302 147.521 133.952 147.305C133.952 146.884 133.952 146.463 133.952 146.029Z" fill="#AC9079"/>
<path d="M130.121 189.393C131.715 190.866 131.715 190.866 133.31 192.581C133.31 193.212 133.31 193.844 133.31 194.494C132.468 194.284 131.626 194.073 130.759 193.856C130.548 192.383 130.338 190.91 130.121 189.393Z" fill="#FEF5F9"/>
<path d="M321.436 332.237C322.067 332.658 322.698 333.078 323.349 333.512C322.717 333.723 322.086 333.933 321.436 334.15C320.664 335.425 320.664 335.425 320.16 336.701C319.318 336.28 318.477 335.859 317.609 335.425C318.84 334.137 319.924 333.244 321.436 332.237Z" fill="#FEF1F7"/>
<path d="M300.39 189.393C301.021 189.393 301.652 189.393 302.303 189.393C302.182 190.91 302.182 190.91 301.665 192.581C300.033 193.416 300.033 193.416 298.477 193.856C299.675 190.107 299.675 190.107 300.39 189.393Z" fill="#AC9079"/>
<path d="M394.13 318.845C395.182 319.687 396.234 320.529 397.318 321.396C397.108 322.027 396.897 322.658 396.681 323.309C395.628 322.467 394.576 321.625 393.492 320.758C393.703 320.127 393.913 319.495 394.13 318.845Z" fill="#493F33"/>
<path d="M463.005 221.915C464.268 221.915 465.53 221.915 466.831 221.915C465.798 223.006 464.733 224.064 463.643 225.104C463.222 225.104 462.801 225.104 462.367 225.104C462.578 224.051 462.788 222.999 463.005 221.915Z" fill="#DEDDDB"/>
<path d="M179.863 168.986C180.284 168.986 180.705 168.986 181.139 168.986C183.052 171.193 183.052 171.193 183.052 172.812C181.47 172.181 181.47 172.181 179.863 171.537C179.863 170.695 179.863 169.853 179.863 168.986Z" fill="#FEDEEB"/>
</svg>
