<svg width="450" height="173" viewBox="0 0 450 173" fill="none" xmlns="http://www.w3.org/2000/svg">
<path d="M3.90806 75.0518C3.36485 71.094 5.51141 67.197 6.94504 66.199C8.37868 65.201 18.4484 71.4555 18.7323 74.9378C19.0162 78.4201 18.9698 83.3784 12.3963 81.1961C5.82276 79.0137 4.45126 79.0097 3.90806 75.0518Z" fill="#FFD7E2"/>
<path d="M205.558 3.9488C209.503 3.3238 213.444 5.38925 214.471 6.80193C215.499 8.2146 209.454 18.4116 205.979 18.7675C202.503 19.1234 197.545 19.1796 199.59 12.5623C201.636 5.94508 201.612 4.57379 205.558 3.9488Z" fill="#FFD7E2"/>
<path d="M269.16 157.766C271.774 154.745 276.119 153.786 277.815 154.204C279.511 154.622 281.459 166.315 279.03 168.827C276.602 171.338 272.846 174.576 270.147 168.198C267.447 161.819 266.545 160.786 269.16 157.766Z" fill="#FFD7E2"/>
<path d="M431.725 105.585C431.51 101.596 433.971 97.889 435.482 97.0127C436.993 96.1365 446.512 103.2 446.508 106.694C446.504 110.188 446.048 115.126 439.677 112.408C433.306 109.691 431.94 109.574 431.725 105.585Z" fill="#FFD7E2"/>
</svg>
